<?xml version="1.0" encoding="UTF-8" standalone="no"?>
<!-- Created with Inkscape (http://www.inkscape.org/) -->

<svg
   version="1.1"
   id="svg2"
   xml:space="preserve"
   width="610.96674"
   height="534.88312"
   viewBox="0 0 610.96674 534.88312"
   sodipodi:docname="80042297e1fa429ab3eaad22c831f6be.eps"
   xmlns:inkscape="http://www.inkscape.org/namespaces/inkscape"
   xmlns:sodipodi="http://sodipodi.sourceforge.net/DTD/sodipodi-0.dtd"
   xmlns="http://www.w3.org/2000/svg"
   xmlns:svg="http://www.w3.org/2000/svg"><defs
     id="defs6"><clipPath
       clipPathUnits="userSpaceOnUse"
       id="clipPath58"><path
         d="m 492.828,1077.62 c -21.426,0.01 -32.726,13.3 -37.605,30.97 -11.715,19.23 -11.969,39.48 -5.274,62.34 7.082,24.18 18.867,48.42 36.242,67.03 13.563,14.56 35.625,33.05 57.606,33.05 1.918,0 3.844,-0.15 5.754,-0.44 52.929,-8.21 54.746,-69.27 37.929,-109.43 -15.554,-37.2 -46.042,-79.9 -90.312,-83.34 -1.492,-0.12 -2.938,-0.18 -4.34,-0.18"
         id="path56" /></clipPath></defs><sodipodi:namedview
     id="namedview4"
     pagecolor="#ffffff"
     bordercolor="#666666"
     borderopacity="1.0"
     inkscape:pageshadow="2"
     inkscape:pageopacity="0.0"
     inkscape:pagecheckerboard="0" /><g
     id="g8"
     inkscape:groupmode="layer"
     inkscape:label="ink_ext_XXXXXX"
     transform="matrix(1.3333333,0,0,-1.3333333,-17.519764,552.06305)"><g
       id="g10"
       transform="scale(0.1)"><path
         d="m 3477.9,2307.49 c -137.75,-99.2 -255.69,-224.38 -377.16,-341.81 -60.12,-58.15 -120.95,-115.86 -177.78,-177.17 -46.08,-49.7 -111.55,-103.48 -147.01,-160.09 0.96,1.53 -1,1.86 -1.85,0.73 -9.01,-11.73 -5.99,-6.21 -10.97,-19.09 -0.7,-1.78 0.87,-3.36 2.69,-2.43 119.98,60.5 226.33,181.17 324.41,270.95 139.9,128.02 293.34,248.61 411.26,397.46 16.41,20.7 2.99,50.6 -23.59,31.45"
         style="fill:#e97174;fill-opacity:1;fill-rule:nonzero;stroke:none"
         id="path12" /><path
         d="m 3382.51,2453.43 c 33.47,25.03 67.05,49.9 100.6,74.84 68.34,57.16 135.8,115.28 196.24,180.88 20.2,21.93 2.33,52.98 -25.32,33.74 -70.25,-48.9 -136.13,-103.44 -200.12,-160.09 -50.72,-54.98 -101.62,-109.76 -152.2,-164.86 -32.03,-34.91 -62.33,-71.29 -92.12,-108.1 56.87,48.83 112.99,98.77 172.92,143.59"
         style="fill:#a2e1f9;fill-opacity:1;fill-rule:nonzero;stroke:none"
         id="path14" /><path
         d="m 4406.75,3643.79 c -195.56,-151.56 -392.62,-302.45 -575.53,-469.04 -163.44,-148.87 -346.67,-296.04 -481.99,-470.95 1.13,1.49 -0.41,3.02 -1.66,1.51 -3.91,-4.59 -2.69,-3.06 -5.5,-10.1 -0.47,-1.2 0.6,-2.12 1.73,-1.58 73.29,33.36 137.66,99.63 200.34,149.12 102.89,81.2 201.53,167.65 300.02,253.96 195.69,171.53 403.09,328.34 593.66,505.66 27.14,25.23 1.12,66.38 -31.07,41.42"
         style="fill:#e43732;fill-opacity:1;fill-rule:nonzero;stroke:none"
         id="path16" /><path
         d="m 3988.22,2928.69 c 67.72,46.24 134.89,93.24 201.57,141.01 3.78,2.75 7.65,5.48 11.49,8.2 70.66,56.55 140.11,114.4 202.81,179.96 19.25,20.13 2.29,46.03 -22.86,30.44 -209.47,-130.09 -378.95,-302.71 -558.58,-467.27 l -0.37,-0.56 c 59,27.17 115.01,73.46 165.94,108.22"
         style="fill:#eeba33;fill-opacity:1;fill-rule:nonzero;stroke:none"
         id="path18" /><path
         d="m 3986.04,2757.05 c -73.68,-44.64 -138.67,-97.26 -202.99,-154.16 -10.14,-8.96 -19.94,-18.19 -29.91,-27.31 -46.59,-52.7 -93.02,-105.54 -140.43,-157.53 52.87,26.3 106.34,81.69 146.12,112.56 84.2,65.35 171,125.36 246.42,200.87 16.77,16.8 1.76,38.27 -19.21,25.57"
         style="fill:#e43732;fill-opacity:1;fill-rule:nonzero;stroke:none"
         id="path20" /><path
         d="m 3324.16,3346.04 c 104.77,44.91 198.27,128.26 292.24,187.93 14.29,9.1 28.41,18.4 42.65,27.58 101.08,70.97 201.22,143.17 299.24,217.15 16.13,12.18 15.74,47.37 -10.58,34.54 -130.05,-63.41 -245.62,-147.6 -359.96,-235.05 -62.54,-47.87 -123.81,-97.74 -185.15,-147.11 -18.61,-15.01 -33.18,-28.76 -50.43,-45.24 4.53,4.32 -17.43,-23.84 -28.01,-39.8"
         style="fill:#a2e1f9;fill-opacity:1;fill-rule:nonzero;stroke:none"
         id="path22" /><path
         d="m 4204.9,3779.81 c 68.56,46.54 138.63,90.78 207.35,137.1 99.65,67.24 196.64,138.93 299.74,200.75 4.68,13.51 -0.22,29.03 -18.81,20.25 -114.33,-54.03 -220.68,-118.6 -323.85,-189.85 -13.2,-10.98 -26.43,-21.97 -39.55,-33.04 -92.56,-78.2 -191.42,-153.92 -278.23,-240.18 53.34,31.26 103.75,71.31 153.35,104.97"
         style="fill:#e97174;fill-opacity:1;fill-rule:nonzero;stroke:none"
         id="path24" /><path
         d="m 3603.54,3682.34 c -88.11,-41.73 -165.11,-100.42 -240.65,-161.13 -70.88,-57.01 -145.49,-113.87 -198.53,-188.15 -2.07,-2.87 0.99,-5.01 3.65,-3.33 153.23,97.77 317.08,198.61 451.89,320.31 15.56,14.06 6.86,43.33 -16.36,32.3"
         style="fill:#e43732;fill-opacity:1;fill-rule:nonzero;stroke:none"
         id="path26" /><path
         d="m 3143.88,3561.66 c -199.69,-126.52 -378.03,-282.68 -556.44,-436.42 -75.12,-64.74 -148.51,-131.69 -222.16,-198.04 -64.73,-58.3 -116,-129.83 -179.74,-187.98 l -0.76,-1.41 c 11.49,7.01 22.84,14.28 34.05,21.87 0.41,0.44 0.48,0.55 -0.44,-0.16 38.85,31.3 76.56,63.55 116.48,93.6 94.4,71.11 187.81,143.03 280.37,216.45 187.58,148.89 380.88,293.72 551.08,462.17 19.53,19.34 1.96,45.39 -22.44,29.92"
         style="fill:#e97174;fill-opacity:1;fill-rule:nonzero;stroke:none"
         id="path28" /><path
         d="m 3054.84,3303.99 c -45.85,-25.23 -87.87,-54.22 -129.2,-85.67 -44.34,-38.84 -87.47,-78.93 -127.79,-121.86 33.21,11.82 65.14,39.52 94.03,56.51 62.1,36.54 122.5,78.39 174.73,127.79 10.5,9.91 4.85,32.37 -11.77,23.23"
         style="fill:#eeba33;fill-opacity:1;fill-rule:nonzero;stroke:none"
         id="path30" /><path
         d="m 1972.74,2854.95 c -65.86,-38.84 -127.13,-83.99 -185.19,-133.22 -77.55,-77.26 -153.13,-156.39 -218.7,-243.82 57.64,35.25 109.07,87.29 159.16,128.66 88.63,73.23 186.78,135.8 268.54,216.68 21.08,20.89 2.14,47 -23.81,31.7"
         style="fill:#e43732;fill-opacity:1;fill-rule:nonzero;stroke:none"
         id="path32" /><path
         d="m 2648.99,3279.15 c -142.72,-99.17 -280.05,-207.91 -409.9,-323.09 -68.22,-60.51 -135.23,-122.18 -198.72,-187.57 -31.91,-32.91 -64.6,-64.69 -95.43,-98.7 -14.93,-16.69 -29.74,-33.51 -44.37,-50.44 -9.07,-10.36 -28.46,-38.95 -9.04,-9.35 l -0.81,0.52 c -14.03,-15.67 -8.43,-8.75 -21.68,-27.48 -1.99,-2.78 0.04,-4.78 2.51,-4.5 40.8,26.47 77.27,62.82 114.6,92.32 25.33,23.78 50.25,47.75 75.58,69.19 69.29,58.63 134.28,122.22 203.91,180.66 133.32,111.97 272.25,217.83 400.46,335.7 15.23,13.99 1.08,35.35 -17.11,22.74"
         style="fill:#eeba33;fill-opacity:1;fill-rule:nonzero;stroke:none"
         id="path34" /><path
         d="m 1434.75,2572.74 c -83.75,-57.67 -160.02,-121.65 -233.11,-191.96 -42.8,-41.21 -83.2,-84.93 -123.6,-128.44 -44.08,-47.52 -84.673,-112.34 -134.329,-153.79 -2.5,-2.07 -2.617,-8.25 1.777,-5.81 77.962,43.32 146.142,123.25 211.662,183.58 98.3,90.56 206.26,172.52 296.39,271.37 14.94,16.35 1.81,39.26 -18.79,25.05"
         style="fill:#a2e1f9;fill-opacity:1;fill-rule:nonzero;stroke:none"
         id="path36" /><path
         d="m 1318.96,2296.43 c -29.82,-19.71 -58.57,-40.31 -85.22,-64.11 -30,-26.82 -47.4,-61.91 -80.03,-86.15 -3.21,-2.38 -2.84,-9.6 2.07,-6.78 27.76,15.87 56.77,37.84 79.51,59.81 30.26,29.22 63.77,54.48 92.89,84.95 7.63,8 0.85,18.92 -9.22,12.28"
         style="fill:#e97174;fill-opacity:1;fill-rule:nonzero;stroke:none"
         id="path38" /><path
         d="m 2759.15,1518.79 c -184.79,-140.44 -337.32,-300.17 -489.89,-471 0.88,0.98 0.04,2.56 -1.14,1.53 -4.99,-4.33 -9.97,-8.66 -14.94,-13 -1.84,-1.59 -2.07,-6.35 1.4,-4.47 81.33,44.18 157.03,127.93 226.41,188.71 101.76,89.19 202.52,177.03 294.64,276.24 13.03,14.04 1.13,35.37 -16.48,21.99"
         style="fill:#eeba33;fill-opacity:1;fill-rule:nonzero;stroke:none"
         id="path40" /><path
         d="m 3105.39,1728.77 c 42.28,34.91 84.85,69.49 127.21,104.32 24.21,26.87 47.99,54.02 71.22,81.27 15.11,17.69 1.2,45.7 -20.71,27.6 -92.13,-76.08 -178.16,-156.83 -262.28,-241.38 -40.73,-40.94 -77.94,-85.34 -117.7,-127.25 -22.3,-23.54 -45.6,-46.26 -68.34,-69.45 -1.23,-1.27 -14.72,-19.52 -24.77,-33.88 99.84,84.64 194.39,175.4 295.37,258.77"
         style="fill:#e43732;fill-opacity:1;fill-rule:nonzero;stroke:none"
         id="path42" /><path
         d="m 4047.72,3600.27 c -174.14,-93.72 -344.15,-188.31 -508.33,-292.82 103.73,82.67 208.68,163.86 315.76,243.6 5.63,4.2 9.37,20.97 -2.5,17.26 -73.92,-23.07 -144.02,-73.57 -209.82,-113.97 -105.79,-64.95 -222.2,-117.52 -320.92,-192.77 -97.35,-74.2 -203.18,-134.6 -298.84,-207.49 46.23,56.67 92.82,112.96 137.24,171.33 5.86,7.74 -3.28,15.92 -10.58,9.79 -112.73,-95.01 -257.18,-161.26 -377.53,-247.35 -90.46,-64.74 -170.05,-119.19 -241.53,-193.67 33.59,69.86 85.27,122.46 139.19,181.89 7.19,7.93 4.28,24.96 -8.99,17.97 -91.2,-47.93 -171.29,-109.05 -256.04,-166.9 -63.29,-43.22 -93.51,-124.34 -120.28,-192.47 -40.51,-103.22 -144.91,-73.42 -232.53,-108.9 18,23.1 37.83,45.05 60.95,65.06 3.67,3.19 6.84,13.79 -1.74,11.93 -154.67,-33.39 -384.36,-149.78 -488.31,-310.39 6.97,33.34 18.69,65.83 38.12,97.44 6.11,9.92 -3.06,17.51 -12.28,11.37 -63.98,-42.44 -113.67,-102.75 -148.56,-170.74 -17.53,-34.23 -32.65,-71.29 -46.33,-107.19 -30.3,-79.41 -94.32,-99.56 -167.52,-122.75 -55.89,-17.7 -135.11,-18.84 -206.44,-33.9 28.72,33.39 59.77,64.38 91.53,91.46 6.37,5.44 12.46,26.52 -3.17,21.87 -132.88,-39.51 -270.079,-64.21 -393.125,-131.58 -52.047,-28.51 -93.258,-74.66 -127.469,-122.38 -23.446,-32.71 -44.531,-64.54 -62.996,-100.35 -3.586,-6.95 -6.567,-14.53 -9.289,-22.34 -6.828,37.03 -18.543,72.88 -36.2,106.11 4.579,-70 -35.382,-154.89 -65.988,-202.74 -21.933,-34.37 -46.25,-67.12 -71.25,-99.38 -20.488,-32.34 -41.652,-63.14 -60.93,-91.73 C 264.539,1302.01 196.777,1203 175.449,1064.53 133.457,792.078 277.883,522.789 468.566,339.828 564.109,248.141 692.977,235.469 817.98,220.43 c 140.211,-16.86 290.36,-6.41 426.16,31.711 111.2,31.199 199.63,105.089 277.33,187.89 48.19,51.36 91.62,105.321 136.32,159.641 46.41,56.43 104.54,90.808 166.76,123.566 7.82,4.133 19.29,18.102 9.84,26.551 -34.23,30.59 -70.1,42.199 -107.95,44.961 75.37,62.602 159.33,81.75 253.75,110.262 88.91,26.828 188.25,70.859 178.75,181.128 -3.84,44.59 -36.84,106.35 -22.12,150.23 5.63,16.79 46.3,17 61.4,18.45 40.18,3.89 88.69,22.69 118.69,50.1 31.93,29.16 51.65,62.41 70.71,97.54 3.65,8.59 7.04,17.33 9.91,26.46 13.63,43 28.8,89.02 59.79,123.12 47.29,52.01 115.52,83.01 185.2,99.73 -22.46,14.69 -51.8,22.94 -82.28,26.91 60.56,29.58 120.65,59.36 171.26,98.81 40.7,31.75 69.29,79.95 96.1,123.7 29.01,68.38 57.14,137.15 90.94,203.16 -29.09,-15.68 -57.81,-32.36 -86.01,-50.17 26.99,45.03 50.29,91.53 70.08,135.29 44.16,97.59 98.13,192.82 163.44,278.15 29.38,38.42 87.74,83.9 100.49,132.56 1,3.85 0.47,10.45 -5.19,10.12 -39.19,-2.28 -71.89,-26.23 -104.33,-48.77 8.22,12.57 16.04,24.26 22.93,34.04 46.71,66.13 101.07,125.64 149.55,190.45 53.63,71.66 115.67,139.06 171.11,209.61 45.44,57.78 104.95,99.57 150.33,156.15 3.23,4.05 7.14,16.37 -2.43,16.03 -21.24,-0.73 -42.95,-5.33 -64.81,-12.36 182.01,152.18 371.35,296.49 571.46,420.16 12.98,8.02 9.99,34.06 -7.44,24.66"
         style="fill:#e43732;fill-opacity:1;fill-rule:nonzero;stroke:none"
         id="path44" /><path
         d="M 2511.06,1604.28 C 2434.5,1583.16 2387.4,1546.4 2346.47,1478 c -51.86,-86.68 -106.38,-152.38 -213.12,-160.48 -5.68,-0.42 -7.05,4.41 -4.94,8.85 79.69,167.1 136.24,342.98 189.61,519.83 -66.97,-74.46 -120.28,-159.69 -182.91,-237.78 -3.72,-4.64 -16.48,-7.54 -13.82,2.19 26.72,97.63 50.28,197.71 99.96,286.79 24.96,44.72 49.88,90.16 80.41,131.38 24.69,33.35 55.95,63.88 78.99,98.69 -94.92,-56.16 -184.02,-122.44 -261.27,-201.34 -6.78,-6.95 -19.91,-3.72 -11.68,6.12 72.98,87.11 137.86,180.22 214.34,264.46 64.9,71.5 132.04,141.76 182.13,224.64 -94.77,-52.55 -166.02,-138.39 -259.65,-193.35 -5.56,-3.25 -13.75,0.52 -9.18,7.42 84.35,127.28 192.72,235.75 283.2,358.31 -96.23,-61.32 -200,-113.13 -304.29,-158.64 -108.65,-47.44 -229.38,-89.12 -308.74,-181.83 -3.59,-4.14 -17.29,-7.61 -13.82,2.19 18.31,51.92 49.6,95.99 84.11,137.92 -81.57,-51.33 -161.97,-110.29 -223.39,-184.39 -50.94,-61.42 -94.09,-130.88 -160.08,-177.7 -4.43,-3.14 -14.3,-4.68 -12.06,3.98 8.89,34.24 21.98,67.07 32.22,100.83 -42.62,-35.79 -81.29,-75.92 -127.14,-107.95 -7.19,-5.03 -17.31,-0.7 -9.91,7.91 62.19,72.27 50.65,173.51 94.8,254.79 21.79,40.16 49.99,75.61 78.93,110.54 l -0.41,-0.2 c -63.98,-42.44 -113.67,-102.75 -148.56,-170.74 -17.53,-34.23 -32.65,-71.29 -46.33,-107.19 -30.3,-79.41 -94.32,-99.56 -167.52,-122.75 -55.89,-17.7 -135.11,-18.84 -206.44,-33.9 28.72,33.39 59.77,64.38 91.53,91.46 6.37,5.44 12.46,26.52 -3.17,21.87 -132.88,-39.51 -270.079,-64.21 -393.125,-131.58 -52.047,-28.51 -93.258,-74.66 -127.469,-122.38 -23.446,-32.71 -44.531,-64.54 -62.996,-100.35 -3.586,-6.95 -6.567,-14.53 -9.289,-22.34 -6.828,37.03 -18.543,72.88 -36.2,106.11 4.579,-70 -35.382,-154.89 -65.988,-202.74 -21.933,-34.37 -46.25,-67.12 -71.25,-99.38 -20.488,-32.34 -41.652,-63.14 -60.93,-91.73 C 264.539,1302.01 196.777,1203 175.449,1064.53 133.457,792.078 277.883,522.789 468.566,339.828 564.109,248.141 692.977,235.469 817.98,220.43 c 140.211,-16.86 290.36,-6.41 426.16,31.711 111.2,31.199 199.63,105.089 277.33,187.89 48.19,51.36 91.62,105.321 136.32,159.641 46.41,56.43 104.54,90.808 166.76,123.566 7.82,4.133 19.29,18.102 9.84,26.551 -34.23,30.59 -70.1,42.199 -107.95,44.961 75.37,62.602 159.33,81.75 253.75,110.262 88.91,26.828 188.25,70.859 178.75,181.128 -3.84,44.59 -36.84,106.35 -22.12,150.23 5.63,16.79 46.3,17 61.4,18.45 40.18,3.89 88.69,22.69 118.69,50.1 31.93,29.16 51.65,62.41 70.71,97.54 3.65,8.59 7.04,17.33 9.91,26.46 13.63,43 28.8,89.02 59.79,123.12 21.2,23.31 46.73,42.21 74.6,57.69 -6.95,-1.73 -13.88,-3.54 -20.86,-5.45"
         style="fill:#e65b31;fill-opacity:1;fill-rule:nonzero;stroke:none"
         id="path46" /><path
         d="m 2260.59,2366.11 c 7.42,10.25 -3.61,17.54 -12.76,11.82 -136.64,-85.8 -270.08,-174.88 -397.25,-274.27 -68.19,-53.27 -140.44,-111.25 -200.12,-177.77 5.64,14.04 12.64,27.09 14.77,42.65 1.22,8.68 -8.62,6.54 -12.59,2.88 -20.28,-18.68 -43.14,-35.25 -64.4,-53.4 8.25,16.23 15,32.38 19.6,48.25 2.91,9.94 -6.22,15.28 -14.32,9.15 -86.42,-65.45 -192.03,-107.66 -286.32,-161.24 -18.1,-10.3 -40.98,-20.16 -63.4,-31.61 27.21,27.22 53.71,55.41 65.32,86.2 2.35,6.23 -1.48,13.61 -8.89,11.76 -104.09,-25.76 -211.95,-61.15 -307.757,-109.18 -16.106,-8.07 -41.692,-26.04 -65.715,-47.88 -2.512,45.17 -17.949,86.97 -37.41,127.52 -2.993,-34.45 -14.75,-69.19 -33.52,-90.85 -9.129,-10.56 -20.379,-19.66 -32.906,-27.52 -5.277,-4.88 -11.504,-8.77 -19.094,-11.07 -1.082,-0.31 -2.101,-0.71 -3.172,-1.04 -18.183,-8.43 -37.851,-14.45 -57.402,-18.65 -24.25,-8.18 -48.469,-16.47 -72.875,-24.34 -73.797,-23.82 -137.859,-42.23 -201.473,-88.78 -68.386,-50.08 -134.258,-119.01 -169.343,-199.04 -6.055,27.36 -8.09,57.38 -4.875,84.36 -4.239,-35.72 -65.247,-95.14 -83.641,-128.54 C 187.09,1302.01 167.336,1256.5 154.094,1208.56 127.813,1113.28 127.227,1012.68 137.883,915.012 165.676,660.52 293.477,426.578 503.918,278.211 713.574,130.379 995.43,93.7383 1239.23,161.84 c 50.8,14.191 100.3,32.941 147.38,56.32 58.09,39.32 107.56,89.578 162.96,136.629 32.67,27.723 67.86,56.992 107.78,73.641 20.98,8.73 42.46,15.422 64.21,21.23 -35.42,1.559 -70.7,6.559 -106.04,12.328 -8.34,1.364 -2.06,11.742 2.17,13.973 33.54,17.539 69.48,29.379 103.43,46 44.23,21.668 70.12,47.98 92.34,92.039 1.59,3.191 3.21,6.371 4.82,9.559 2.36,11.101 4.65,21.882 7.24,31.671 9.31,35 28.46,57.231 50.09,78.239 12.06,21.75 24.84,43.09 38.19,64.14 -30.85,14.911 -81.58,17.493 -111.99,15.231 -4.93,-0.371 -9.48,-1.172 -14.09,-1.899 15.82,22.348 33.77,42.661 69.6,55.68 11.14,4.027 22.93,7.18 34.73,10.438 48.77,35.363 79.33,82.492 94.56,147.951 2.05,8.95 26.49,116.09 42.82,176.42 -42.8,-12.48 -81.32,-37.54 -117.29,-64.98 21.4,56.1 38.05,113.97 54.23,172.21 24.79,89.41 62.52,170.87 90.02,258.01 3.6,11.35 -7.79,18.77 -17,10.84 -74.32,-63.84 -148.31,-139.94 -210.59,-221.92 11.97,29.27 24.66,58.3 38.93,86.93 41.13,82.54 98.68,165.4 126.23,253.29 2.41,7.68 -3.16,13.04 -10.72,9.92 -27.21,-11.26 -49.83,-47.91 -70.1,-67.89 -12.65,-12.45 -25.66,-24.67 -38.81,-36.84 46.06,71.16 92.96,141.8 145.82,208.24 8.32,10.46 1.43,25.4 -11.76,15.85 -81.92,-59.08 -160.36,-124.73 -241.79,-185.36 31.83,38.3 62.82,77.28 94.53,115.77 42.67,51.86 93.8,99.87 132.62,154.28 6.34,8.89 -0.88,17.84 -10.65,14.22 -45.6,-16.82 -91.71,-46.44 -134.8,-80.27 62.06,101.36 130.82,196.17 207.81,288.96 65.52,78.89 144.58,150.7 204.48,233.42"
         style="fill:#eb9d35;fill-opacity:1;fill-rule:nonzero;stroke:none"
         id="path48" /><path
         d="m 1607.73,1074.24 c -44.05,98.48 35.91,200.38 -70.54,276.24 -42.37,30.19 -51.1,84.56 -88.06,113.24 -51.61,40 -123.75,39.41 -169.87,84.52 -32.5,31.84 -65.53,43.34 -109.58,48.48 -13.49,1.58 -26.66,0.46 -39.83,-0.65 -16.86,-1.42 -33.72,-2.84 -51.23,1.37 -23.63,5.67 -47.48,16.76 -71.91,19.03 -16.628,1.53 -34.515,-1.42 -52.284,-4.38 -22.465,-3.73 -44.735,-7.47 -64.016,-2.14 -58.055,16.08 -115.195,-25.81 -172.558,-27.68 C 627.668,1579.3 533.965,1497.76 470.594,1440.85 408.367,1385 335.828,1311.5 336.336,1223.51 c 0.117,-22.78 -40.496,-62.9 -49.207,-88.32 -10.867,-31.83 -6.848,-70.98 0.254,-103.12 1.523,-9.07 3.144,-18.14 4.551,-27.18 16.543,-106.242 -32.93,-203.679 21.191,-307.429 24.109,-46.223 52.266,-88.922 80.5,-132.699 29.676,-46.012 32.957,-93.133 79.07,-127.102 30.879,-22.73 78.996,-21.332 114.598,-18.82 52.277,3.672 61.594,-51.09 101.672,-66.66 37.187,-14.418 75.344,-24.239 115.078,-27.469 22.344,-1.82 48.504,6.84 69.816,11.891 44.266,10.449 55.145,-18.473 93.258,-22.762 89.463,-10.078 200.823,34.539 273.923,85.48 87.09,60.711 198.35,16.192 264.78,120.5 54.22,85.239 30.12,196.731 93.17,274.02 74.84,91.719 53.28,180.801 8.74,280.4"
         style="fill:#955b46;fill-opacity:1;fill-rule:nonzero;stroke:none"
         id="path50" /><g
         id="g52"><g
           id="g54"
           clip-path="url(#clipPath58)"><path
             d="m 443.254,1077.62 h 161.043 v 193.391 H 443.254 Z"
             style="fill:#6d3f30;fill-opacity:1;fill-rule:nonzero;stroke:none"
             id="path60" /></g></g><path
         d="m 1078.69,994.68 c -11.6,0 -21.75,9.04 -28.18,18.89 -15.78,24.07 -26.58,50.56 -8.19,76.89 5.28,7.55 10.81,10.54 16.22,10.54 0.1,0 0.19,0 0.29,0 2.59,2.34 5.2,4.65 8.41,6.52 4.4,2.58 9.08,3.86 13.58,3.86 8.06,0 15.55,-4.12 19.88,-12.41 1.62,-3.08 3.06,-6.45 4.43,-9.93 1.47,-2.38 2.69,-5.1 3.5,-8.26 0.4,-1.51 0.4,-3.06 0.66,-4.56 4.55,-16.86 5.87,-35.54 1.59,-50.6 -3.6,-12.73 -11.21,-24.72 -24.15,-29.472 -2.74,-1.007 -5.43,-1.468 -8.04,-1.468"
         style="fill:#6d3f30;fill-opacity:1;fill-rule:nonzero;stroke:none"
         id="path62" /><path
         d="m 894.258,1426.49 c 0.219,1.73 0.597,3.45 1.023,5.07 1.86,7.04 9.567,13.44 17.129,15.4 -5.875,-7 -11.965,-13.78 -18.152,-20.47"
         style="fill:#6d3f30;fill-opacity:1;fill-rule:nonzero;stroke:none"
         id="path64" /><path
         d="m 1425.26,1087.33 c -0.51,0.18 -1.01,0.4 -1.5,0.67 -3.84,2.16 -5.86,4.67 -8.26,7.95 -5.78,5.09 -8.88,12.15 -9.87,19.95 -5.05,8.4 -4.43,20.49 -2.04,29.3 3.4,12.54 13.27,24.15 25.25,29.19 2.13,0.9 4.18,1.54 6.14,1.96 -2,-12.29 -3.73,-24.31 -4.77,-35.81 -1.62,-17.75 -3.26,-35.49 -4.95,-53.21"
         style="fill:#6d3f30;fill-opacity:1;fill-rule:nonzero;stroke:none"
         id="path66" /><path
         d="m 742.793,1064.95 c -2.766,0 -5.414,0.97 -7.645,3.22 l -0.628,0.63 c -6.387,6.45 -2.43,16.5 2.765,22.29 l 0.77,0.84 c 3.386,3.77 8.199,6.42 13.175,6.42 1.368,0 2.747,-0.2 4.11,-0.63 1.738,-0.55 3.281,-1.53 4.57,-2.8 1.211,-1.2 2.074,-2.53 2.633,-3.95 -5.527,-8.31 -11.039,-16.86 -16.273,-25.54 -1.165,-0.31 -2.329,-0.48 -3.477,-0.48"
         style="fill:#6d3f30;fill-opacity:1;fill-rule:nonzero;stroke:none"
         id="path68" /><path
         d="m 943.734,364.32 c -0.461,0 -0.91,0.051 -1.351,0.149 -13.156,2.929 -26.891,3.883 -40.899,3.883 -13.254,0 -26.757,-0.852 -40.269,-1.711 -9.25,-0.59 -18.504,-1.18 -27.68,-1.493 -48.301,11.114 -90.812,29.973 -127.992,54.883 -12.133,12.879 -24.496,24.848 -40.578,31.348 -59.27,52.43 -101.985,122.082 -130.676,199.211 0.02,0 0.039,0 0.059,0 5.242,0 12.707,4.601 8.679,10.691 l -1.066,1.598 c -0.945,1.43 -2.121,2 -3.34,2 -2.758,0 -5.75,-2.918 -6.875,-5.367 l -0.398,-0.864 c -22.555,63.18 -35.887,131.09 -41.336,198.442 -16.653,-80.231 -17.102,-185.219 35.054,-304.07 0,0 -36.656,42.769 -72.425,116.281 2.359,1.699 4.019,3.699 5.797,5.668 l 0.39,0.41 c 1.152,1.312 2.219,2.652 3.145,4.07 7.949,10.891 11.535,26.313 11.093,39.449 -0.964,27.723 -13.457,66.68 -39.519,80.43 -3.84,2.024 -7.484,2.922 -10.906,2.922 -6.328,0 -11.903,-3.082 -16.59,-7.801 -8.055,30.602 -14.356,63.551 -17.824,98.492 29.769,36.879 61.988,80.071 90.781,80.071 4.648,0 9.215,-1.133 13.66,-3.594 23.414,-12.938 48.328,-60.906 30.777,-85 -7.066,-9.707 -15.847,-18.379 -19.871,-30.039 -6.476,-18.82 -7.07,-26.91 2.52,-44.578 18.347,-33.879 18.84,-57.231 16.941,-94.442 -0.16,-3.461 2.594,-4.871 5.461,-4.871 0.934,0 1.883,0.153 2.742,0.422 17.942,5.809 34.028,12.879 50.528,22.102 0.539,0.297 1.047,0.449 1.523,0.449 8.547,0 7.734,-45.84 9.082,-52.723 7.863,-39.418 44.797,-38.828 74.66,-57.797 0.809,-0.519 1.739,-0.73 2.711,-0.73 2.617,0 5.547,1.559 7.238,3.019 29.309,25.211 133.442,76.192 65.461,124.059 -16.66,11.723 -35.527,18.539 -49.531,33.871 -14.969,16.442 -8.711,42.231 -4.715,60.949 4.09,19.391 10.868,38.34 18.746,56.469 8.098,18.621 19.403,26.434 32.782,26.434 8.617,0 18.09,-3.242 28.121,-8.922 31.734,-17.93 83.386,-48.031 76.269,-91.121 -4.789,-29.188 -16.593,-56.289 9.942,-79.231 14.304,-12.386 31.308,-19.359 45.136,-33.367 12.965,-13.191 17.618,-45.641 22.586,-63.25 2.868,-10.051 -1.082,-25.793 13.911,-25.781 0.058,0 0.121,0 0.179,0 37.219,0.328 101.403,5.66 112.353,49.34 3.98,15.851 5.89,31.582 11.1,47.199 5.31,15.922 11.28,18.75 19.89,18.75 4.54,0 9.82,-0.789 16.11,-0.848 2.13,-0.031 4.71,-0.07 7.59,-0.07 14.1,0 35.28,0.891 44.32,8.449 28.6,24.031 47.69,57.93 74.45,83.75 8.83,8.52 19.25,11.711 30.62,11.711 16.87,0 35.81,-7 54.74,-14.012 18.93,-7 37.83,-14 54.6,-14 2.62,0 5.2,0.172 7.71,0.539 46.06,6.793 61.36,43.602 61.7,82.473 1.05,1.059 1.94,2.199 2.62,3.41 6.04,10.649 11.65,22.938 17.15,36.008 5.87,1.289 11.77,2.34 17.71,3.231 -15.8,-63.18 -30.14,-126.95 -33.41,-189.309 -0.54,-10.293 6.38,-16.102 14.43,-16.102 4.16,0 8.62,1.563 12.5,4.852 57.8,49.051 115.72,115.898 147.75,185.238 10.81,23.41 19.49,47.52 26.85,72.063 7.28,-25.16 11.6,-49.821 11.6,-74.223 0.01,-41.711 -12.6,-82.68 -44.64,-124.141 43.52,56.321 51.11,111.782 39.99,169.391 -7.37,-41.008 -4.53,-83.609 -30.63,-118.68 -8.11,-10.89 -22.89,-17.289 -34.87,-22.257 -50.32,-20.883 -38,-61.082 -43.32,-103.34 -2.03,-15.934 -12.09,-30.16 -22.81,-41.434 -21.78,-22.949 -24.59,-44.898 -29.42,-76.156 -2.2,-14.301 -5.29,-28.434 -11.12,-41.141 -32.87,-23.222 -70.45,-47.691 -108.95,-68.582 -13.6,-2.859 -27.73,-4.73 -42.48,-5.969 -3.38,-0.289 -6.82,-0.539 -10.31,-0.769 l 74.11,100.051 c 0,0 -6.55,-6.481 -19.02,-16.953 -23.79,-30.239 -49.23,-58.969 -77.48,-84.618 -20.81,-1.589 -41.9,-4.25 -60.19,-12.179 -30.6,-13.262 -29.35,-36.621 -48.21,-57.582 -11.88,-13.18 -35.92,-16.899 -51.91,-20.789 -20.9,-5.11 -41.33,-14.34 -62.7,-17.582 -6.21,-0.95 -12.13,-1.399 -17.8,-1.399 -27.27,-0.012 -49.006,10.539 -71.56,27.899 -7.93,-11.739 -15.039,-23.399 -21.192,-36.528 -1.554,-3.293 -6.039,-6.711 -10.004,-6.711 m 98.546,106.739 c -2.14,-8.34 -4.16,-20.09 1.4,-27.93 4.98,-7.008 10.98,-9.699 17.23,-9.699 2.57,0 5.17,0.449 7.76,1.242 2.22,-0.531 4.38,-0.793 6.47,-0.793 18.46,0 31.83,19.699 35.42,36.82 2.97,14.41 1.1,31.16 -9.27,42.199 -4,4.274 -10.31,6.262 -16.56,6.262 -4.51,0 -8.99,-1.039 -12.52,-3.012 -11.69,-6.476 -20.52,-15.398 -25.51,-27.988 -1.58,-4.039 -2.47,-8.129 -3.5,-12.371 -0.3,-1.25 -1.77,-7.57 -1.7,-7.57 0.03,0 0.25,0.781 0.78,2.84 m -361.764,71.73 c -4.586,0 -9.067,-5.918 -9.981,-9.789 -2.539,-7.07 0.559,-19.27 9.184,-21.121 1.535,-0.32 3.051,-0.5 4.496,-0.5 5.867,0 10.637,2.883 11.383,10.359 0.621,6.453 -3.5,12.942 -8.442,17.313 -0.515,0.859 -1.218,1.57 -2.398,1.82 l -1.504,1.149 c -0.899,0.531 -1.82,0.769 -2.738,0.769 m 594.714,57.082 c -3.59,0 -7.58,-3 -9.94,-4.922 -4.6,-3.801 -7.62,-8.75 -7.33,-14.84 0.26,-5.488 4.85,-7.55 9.5,-7.55 2.52,0 5.06,0.601 6.93,1.601 5.39,2.801 12.77,10.078 10.74,17.051 l -0.41,1.469 c -0.81,3 -2.43,4.531 -5.31,5.179 l -1.73,1.45 c -0.78,0.39 -1.61,0.562 -2.45,0.562 m 141.57,16.859 c -3.77,-5.66 -5.94,-12.218 -4.91,-19.429 1.43,-9.949 9.28,-14.301 17.73,-14.301 5.99,0 12.28,2.18 16.81,6.109 l 1.33,1.153 c 2.2,1.879 3.69,3.179 4.67,4.039 8.42,6.117 15.01,14.519 16.34,25.328 1.53,12.199 -6.63,21.57 -18.04,21.57 -1.52,0 -3.09,-0.16 -4.7,-0.508 l -0.3,-0.082 c -4.71,-1.007 -9.03,-3.328 -13.02,-6.148 l 0.03,0.199 -0.69,-0.699 c -2.84,-2.09 -5.34,-4.512 -7.56,-7.281 l -1.02,-1.192 -1.11,-1.437 c -1.22,-1.5 -2.44,-3.09 -3.65,-4.731 l -1.62,-2.109 -0.41,-0.531 0.12,0.05 m -335.78,34.629 c -13.53,0 -25.61,-9.789 -30.19,-22.339 -3.69,-10.11 -0.44,-25.129 12.9,-25.129 13.53,0 25.65,9.789 30.19,22.339 3.69,10.11 0.44,25.129 -12.9,25.129 m 160.53,114.692 c -1.8,0 -3.58,-0.231 -5.31,-0.711 -13.82,-3.852 -23.85,-12.68 -31.78,-24.41 -11.68,-17.301 -21.37,-38.371 -14.4,-59.18 2.64,-7.879 9.65,-10.738 17.34,-10.738 8.42,0 17.65,3.437 22.83,7.488 14.26,11.18 24.29,22.031 27.94,40.34 l -0.03,1.699 c 0.47,1.051 1.07,2.039 1.52,3.09 3.94,8.851 5.78,20.031 2.21,29.269 -3.08,7.93 -11.77,13.153 -20.32,13.153 M 774.063,885.512 c -7.211,0 -14.899,-3.332 -21.258,-10.293 l -0.032,-0.071 c -7.902,-3.976 -12.089,-14.847 -13.984,-23.48 -3.789,-10.469 -5.293,-21.68 -4.785,-33.77 0.437,-10.457 7.93,-17.687 17.734,-19.257 l 0.227,-0.161 c 3.953,-1.859 7.664,-2.71 11.125,-2.71 26.121,-0.008 37.945,48.191 34.105,68.398 -2.672,13.922 -12.375,21.344 -23.132,21.344 m -298.965,22.519 c -14.121,0 -26.739,-10.211 -31.457,-23.261 -3.828,-10.559 -0.477,-26.211 13.457,-26.211 14.093,0 26.691,10.211 31.406,23.269 3.84,10.551 0.488,26.203 -13.406,26.203 m -23.356,46.449 c -2.812,0 -6.773,-3.39 -7.101,-6.128 -0.188,-1.602 -0.371,-3.223 -0.559,-4.821 -0.348,-3.043 1.262,-4.293 3.348,-4.293 3.441,0 8.179,3.41 7.609,7.883 -0.187,1.481 -0.371,2.969 -0.555,4.457 -0.269,2.094 -1.367,2.902 -2.742,2.902"
         style="fill:#5a231a;fill-opacity:1;fill-rule:nonzero;stroke:none"
         id="path70" /><path
         d="m 452.641,669.301 c -17.102,35.14 -33.989,77.269 -46.59,125.148 4.687,4.719 10.262,7.801 16.59,7.801 3.422,0 7.066,-0.898 10.906,-2.922 26.062,-13.75 38.555,-52.707 39.519,-80.43 0.442,-13.136 -3.144,-28.558 -11.093,-39.449 -0.926,-1.418 -1.993,-2.758 -3.145,-4.07 l -0.39,-0.41 C 456.66,673 455,671 452.641,669.301"
         style="fill:#421915;fill-opacity:1;fill-rule:nonzero;stroke:none"
         id="path72" /><path
         d="m 763.09,795.77 c -3.461,0 -7.172,0.851 -11.125,2.71 l -0.227,0.161 c -9.804,1.57 -17.297,8.8 -17.734,19.257 -0.508,12.09 0.996,23.301 4.785,33.77 1.895,8.633 6.082,19.504 13.984,23.48 l 0.032,0.071 c 6.359,6.961 14.047,10.293 21.258,10.293 10.757,0 20.46,-7.422 23.132,-21.344 3.84,-20.207 -7.984,-68.406 -34.105,-68.398"
         style="fill:#421915;fill-opacity:1;fill-rule:nonzero;stroke:none"
         id="path74" /><path
         d="m 684.215,511.379 c -1.445,0 -2.961,0.18 -4.496,0.5 -8.625,1.851 -11.723,14.051 -9.184,21.121 0.914,3.871 5.395,9.789 9.981,9.789 0.918,0 1.839,-0.238 2.738,-0.769 l 1.504,-1.149 c 1.18,-0.25 1.883,-0.961 2.398,-1.82 4.942,-4.371 9.063,-10.86 8.442,-17.313 -0.746,-7.476 -5.516,-10.359 -11.383,-10.359"
         style="fill:#421915;fill-opacity:1;fill-rule:nonzero;stroke:none"
         id="path76" /><path
         d="m 1060.91,433.43 c -6.25,0 -12.25,2.691 -17.23,9.699 -5.56,7.84 -3.54,19.59 -1.4,27.93 -0.53,-2.059 -0.75,-2.84 -0.78,-2.84 -0.07,0 1.4,6.32 1.7,7.57 1.03,4.242 1.92,8.332 3.5,12.371 4.99,12.59 13.82,21.512 25.51,27.988 3.53,1.973 8.01,3.012 12.52,3.012 6.25,0 12.56,-1.988 16.56,-6.262 10.37,-11.039 12.24,-27.789 9.27,-42.199 -3.59,-17.121 -16.96,-36.82 -35.42,-36.82 -2.09,0 -4.25,0.262 -6.47,0.793 -2.59,-0.793 -5.19,-1.242 -7.76,-1.242"
         style="fill:#421915;fill-opacity:1;fill-rule:nonzero;stroke:none"
         id="path78" /><path
         d="m 1207.4,671.012 c -7.69,0 -14.7,2.859 -17.34,10.738 -6.97,20.809 2.72,41.879 14.4,59.18 7.93,11.73 17.96,20.558 31.78,24.41 1.73,0.48 3.51,0.711 5.31,0.711 8.55,0 17.24,-5.223 20.32,-13.153 3.57,-9.238 1.73,-20.418 -2.21,-29.269 -0.45,-1.051 -1.05,-2.039 -1.52,-3.09 l 0.03,-1.699 c -3.65,-18.309 -13.68,-29.16 -27.94,-40.34 -5.18,-4.051 -14.41,-7.488 -22.83,-7.488"
         style="fill:#421915;fill-opacity:1;fill-rule:nonzero;stroke:none"
         id="path80" /><path
         d="m 447.43,939.238 c -2.086,0 -3.696,1.25 -3.348,4.293 0.188,1.598 0.371,3.219 0.559,4.821 0.328,2.738 4.289,6.128 7.101,6.128 1.375,0 2.473,-0.808 2.742,-2.902 0.184,-1.488 0.368,-2.976 0.555,-4.457 0.57,-4.473 -4.168,-7.883 -7.609,-7.883"
         style="fill:#421915;fill-opacity:1;fill-rule:nonzero;stroke:none"
         id="path82" /><path
         d="m 457.098,858.559 c -13.934,0 -17.285,15.652 -13.457,26.211 4.718,13.05 17.336,23.261 31.457,23.261 13.894,0 17.246,-15.652 13.406,-26.203 -4.715,-13.058 -17.313,-23.269 -31.406,-23.269"
         style="fill:#421915;fill-opacity:1;fill-rule:nonzero;stroke:none"
         id="path84" /><path
         d="m 534.348,650.59 c -0.02,0 -0.039,0 -0.059,0 -1,2.68 -1.976,5.359 -2.941,8.058 l 0.398,0.864 c 1.125,2.449 4.117,5.367 6.875,5.367 1.219,0 2.395,-0.57 3.34,-2 l 1.066,-1.598 c 4.028,-6.09 -3.437,-10.691 -8.679,-10.691"
         style="fill:#421915;fill-opacity:1;fill-rule:nonzero;stroke:none"
         id="path86" /><path
         d="m 1063.73,603.891 c -13.34,0 -16.59,15.019 -12.9,25.129 4.58,12.55 16.66,22.339 30.19,22.339 13.34,0 16.59,-15.019 12.9,-25.129 -4.54,-12.55 -16.66,-22.339 -30.19,-22.339"
         style="fill:#421915;fill-opacity:1;fill-rule:nonzero;stroke:none"
         id="path88" /><path
         d="m 1267.46,572.559 c -4.65,0 -9.24,2.062 -9.5,7.55 -0.29,6.09 2.73,11.039 7.33,14.84 2.36,1.922 6.35,4.922 9.94,4.922 0.84,0 1.67,-0.172 2.45,-0.562 l 1.73,-1.45 c 2.88,-0.648 4.5,-2.179 5.31,-5.179 l 0.41,-1.469 c 2.03,-6.973 -5.35,-14.25 -10.74,-17.051 -1.87,-1 -4.41,-1.601 -6.93,-1.601"
         style="fill:#421915;fill-opacity:1;fill-rule:nonzero;stroke:none"
         id="path90" /><path
         d="m 1429.62,583 c -8.45,0 -16.3,4.352 -17.73,14.301 -1.03,7.211 1.14,13.769 4.91,19.429 l -0.12,-0.05 0.41,0.531 1.62,2.109 c 1.21,1.641 2.43,3.231 3.65,4.731 l 1.11,1.437 1.02,1.192 c 2.22,2.769 4.72,5.191 7.56,7.281 l 0.69,0.699 -0.03,-0.199 c 3.99,2.82 8.31,5.141 13.02,6.148 l 0.3,0.082 c 1.61,0.348 3.18,0.508 4.7,0.508 11.41,0 19.57,-9.371 18.04,-21.57 -1.33,-10.809 -7.92,-19.211 -16.34,-25.328 -0.98,-0.86 -2.47,-2.16 -4.67,-4.039 l -1.33,-1.153 C 1441.9,585.18 1435.61,583 1429.62,583"
         style="fill:#421915;fill-opacity:1;fill-rule:nonzero;stroke:none"
         id="path92" /><path
         d="m 336.336,1223.83 c -0.008,1.89 0.019,3.78 0.078,5.66 -0.059,-1.88 -0.086,-3.76 -0.078,-5.66 m 0.086,5.87 c 0,0.04 0.004,0.08 0.004,0.12 0,-0.04 -0.004,-0.08 -0.004,-0.12"
         style="fill:#8e3d1b;fill-opacity:1;fill-rule:nonzero;stroke:none"
         id="path94" /><path
         d="m 313.125,697.461 c -20.508,39.309 -26.141,77.719 -26.129,116.039 0.016,46.91 8.492,93.699 8.504,141.871 0.004,16.328 -0.965,32.809 -3.566,49.519 -1.407,9.04 -3.028,18.11 -4.551,27.18 -3.953,17.89 -6.949,37.95 -6.957,57.71 -0.008,15.74 1.883,31.3 6.703,45.41 8.691,25.37 49.168,65.39 49.211,88.19 0,0.04 0,0.09 -0.004,0.13 v 0 c 0,0.11 0,0.22 0,0.32 -0.008,1.9 0.019,3.78 0.078,5.66 0.004,0.07 0.008,0.14 0.008,0.21 0,0.04 0.004,0.08 0.004,0.12 1.133,33.32 12.722,64.48 29.929,93.38 1.829,-11.76 5.821,-24 12.856,-36.98 5.898,-10.96 18.902,-42.57 12.059,-54.79 -10.442,-18.61 -25.071,-32.78 -38.372,-49 -11.835,-14.41 -9,-28.46 -1.882,-42.74 -28.34,-21.48 -51.27,-42.91 -15.52,-69.66 23.41,-17.5 32.828,-36.96 34.344,-57.65 -5.289,-19.29 -10.238,-41.778 -13.949,-67.368 -11.973,-32.274 -27.274,-65.5 -27.832,-97.543 -0.071,-3.59 2.214,-4.75 4.867,-4.75 1.851,0 3.879,0.57 5.414,1.261 3.551,1.622 7.219,3.989 11,6.95 0.058,-44.852 4.445,-95.399 15.617,-151.309 -4.684,3.828 -9.449,7.641 -14.273,11.527 -45.235,36.442 -53.782,75.551 -61.934,131.821 -0.184,1.32 -0.281,2.64 -0.469,3.961 -3.254,-49.481 -1.621,-98.731 24.844,-149.469"
         style="fill:#5a231a;fill-opacity:1;fill-rule:nonzero;stroke:none"
         id="path96" /><path
         d="m 1598.99,793.84 c 0.09,0.101 0.17,0.199 0.25,0.301 -0.08,-0.102 -0.16,-0.2 -0.25,-0.301"
         style="fill:#5a231a;fill-opacity:1;fill-rule:nonzero;stroke:none"
         id="path98" /><path
         d="m 1599.34,794.262 c 0.05,0.066 0.1,0.117 0.15,0.179 -0.05,-0.062 -0.1,-0.113 -0.15,-0.179"
         style="fill:#5a231a;fill-opacity:1;fill-rule:nonzero;stroke:none"
         id="path100" /><path
         d="m 1599.61,794.602 c 0.04,0.046 0.08,0.089 0.12,0.136 -0.04,-0.047 -0.08,-0.09 -0.12,-0.136"
         style="fill:#5a231a;fill-opacity:1;fill-rule:nonzero;stroke:none"
         id="path102" /><path
         d="m 1599.86,794.898 c 0.03,0.043 0.06,0.082 0.09,0.114 -0.03,-0.043 -0.06,-0.071 -0.09,-0.114"
         style="fill:#5a231a;fill-opacity:1;fill-rule:nonzero;stroke:none"
         id="path104" /><path
         d="m 1600.24,795.371 c 0.02,0.027 0.05,0.07 0.08,0.098 -0.03,-0.028 -0.06,-0.071 -0.08,-0.098"
         style="fill:#5a231a;fill-opacity:1;fill-rule:nonzero;stroke:none"
         id="path106" /><path
         d="m 1600.47,795.66 c 0.03,0.039 0.06,0.07 0.09,0.11 -0.03,-0.032 -0.06,-0.071 -0.09,-0.11"
         style="fill:#5a231a;fill-opacity:1;fill-rule:nonzero;stroke:none"
         id="path108" /><path
         d="m 1600.71,795.961 c 0.03,0.039 0.05,0.07 0.08,0.098 -0.02,-0.028 -0.06,-0.071 -0.08,-0.098"
         style="fill:#5a231a;fill-opacity:1;fill-rule:nonzero;stroke:none"
         id="path110" /><path
         d="m 1601.33,796.738 c 0.02,0.032 0.04,0.051 0.06,0.082 -0.02,-0.031 -0.04,-0.05 -0.06,-0.082"
         style="fill:#5a231a;fill-opacity:1;fill-rule:nonzero;stroke:none"
         id="path112" /><path
         d="m 1601.79,797.32 c 0.03,0.032 0.05,0.071 0.08,0.102 -0.03,-0.043 -0.05,-0.063 -0.08,-0.102"
         style="fill:#5a231a;fill-opacity:1;fill-rule:nonzero;stroke:none"
         id="path114" /><path
         d="m 1602.11,797.719 c 0.04,0.062 0.08,0.109 0.13,0.172 -0.04,-0.051 -0.09,-0.11 -0.13,-0.172"
         style="fill:#5a231a;fill-opacity:1;fill-rule:nonzero;stroke:none"
         id="path116" /><path
         d="m 1602.35,798.039 c 0.05,0.063 0.09,0.109 0.14,0.172 -0.04,-0.063 -0.09,-0.121 -0.14,-0.172"
         style="fill:#5a231a;fill-opacity:1;fill-rule:nonzero;stroke:none"
         id="path118" /><path
         d="m 1602.59,798.34 c 0.05,0.058 0.11,0.129 0.16,0.199 -0.06,-0.07 -0.11,-0.129 -0.16,-0.199"
         style="fill:#5a231a;fill-opacity:1;fill-rule:nonzero;stroke:none"
         id="path120" /><path
         d="m 1602.83,798.648 c 0.08,0.102 0.16,0.204 0.24,0.301 -0.08,-0.097 -0.16,-0.199 -0.24,-0.301"
         style="fill:#5a231a;fill-opacity:1;fill-rule:nonzero;stroke:none"
         id="path122" /><path
         d="m 1603.1,798.988 c 0.07,0.09 0.15,0.192 0.22,0.293 -0.07,-0.101 -0.15,-0.191 -0.22,-0.293"
         style="fill:#5a231a;fill-opacity:1;fill-rule:nonzero;stroke:none"
         id="path124" /><path
         d="m 1603.37,799.34 c 0.08,0.101 0.15,0.191 0.22,0.289 -0.07,-0.098 -0.14,-0.188 -0.22,-0.289 m -9.46,309.9 c 0.35,3.08 0.8,6.22 1.33,9.4 0.26,-1.83 0.54,-3.65 0.85,-5.48 -0.72,-1.31 -1.45,-2.62 -2.18,-3.92"
         style="fill:#5a231a;fill-opacity:1;fill-rule:nonzero;stroke:none"
         id="path126" /><path
         d="m 1599.24,794.141 c 0.03,0.039 0.07,0.089 0.1,0.121 -0.03,-0.043 -0.06,-0.082 -0.1,-0.121 m 0.25,0.3 c 0.04,0.047 0.08,0.11 0.12,0.161 -0.04,-0.051 -0.08,-0.114 -0.12,-0.161 m 0.24,0.297 c 0.04,0.051 0.09,0.114 0.13,0.16 -0.04,-0.046 -0.09,-0.097 -0.13,-0.16 m 0.22,0.274 c 0.09,0.117 0.19,0.238 0.29,0.359 -0.1,-0.121 -0.19,-0.242 -0.29,-0.359 m 0.37,0.457 c 0.05,0.07 0.1,0.133 0.15,0.191 -0.05,-0.058 -0.1,-0.121 -0.15,-0.191 m 0.24,0.301 c 0.05,0.07 0.1,0.128 0.15,0.191 -0.05,-0.063 -0.1,-0.133 -0.15,-0.191 m 0.23,0.289 c 0.18,0.23 0.36,0.453 0.54,0.679 -0.18,-0.226 -0.36,-0.449 -0.54,-0.679 m 0.6,0.761 c 0.05,0.059 0.11,0.129 0.16,0.192 -0.05,-0.063 -0.11,-0.133 -0.16,-0.192 m 0.25,0.309 c 0.05,0.062 0.1,0.133 0.15,0.191 -0.05,-0.07 -0.1,-0.129 -0.15,-0.191 m 0.23,0.293 c 0.08,0.098 0.16,0.199 0.24,0.297 -0.08,-0.09 -0.16,-0.199 -0.24,-0.297 m 0.37,0.469 c 0.04,0.05 0.07,0.097 0.11,0.148 -0.04,-0.051 -0.07,-0.098 -0.11,-0.148 m 0.25,0.32 c 0.04,0.039 0.07,0.078 0.1,0.129 -0.03,-0.039 -0.07,-0.09 -0.1,-0.129 m 0.26,0.328 c 0.03,0.039 0.05,0.07 0.08,0.109 -0.03,-0.039 -0.05,-0.07 -0.08,-0.109 m 0.32,0.41 c 0.01,0.012 0.02,0.031 0.03,0.039 -0.01,-0.008 -0.02,-0.019 -0.03,-0.039 m 0.25,0.332 c 0.02,0.02 0.04,0.039 0.05,0.059 -0.02,-0.02 -0.03,-0.039 -0.05,-0.059 m 0.27,0.348 c 0.01,0 0.02,0.019 0.02,0.019 0,0 -0.01,-0.007 -0.02,-0.019"
         style="fill:#8e3d1b;fill-opacity:1;fill-rule:nonzero;stroke:none"
         id="path128" /><path
         d="m 930.883,354.488 c -32.809,0 -65.238,3.352 -96.469,10.461 -0.293,0.071 -0.59,0.141 -0.879,0.199 9.176,0.313 18.43,0.903 27.68,1.493 13.512,0.859 27.015,1.711 40.269,1.711 14.008,0 27.743,-0.954 40.899,-3.883 0.441,-0.098 0.89,-0.149 1.351,-0.149 3.965,0 8.45,3.418 10.004,6.711 6.153,13.129 13.262,24.789 21.192,36.528 22.554,-17.36 44.29,-27.911 71.56,-27.899 5.67,0 11.59,0.449 17.8,1.399 21.37,3.242 41.8,12.472 62.7,17.582 15.99,3.89 40.03,7.609 51.91,20.789 18.86,20.961 17.61,44.32 48.21,57.582 18.29,7.929 39.38,10.59 60.19,12.179 -17.34,-15.742 -35.74,-30.32 -55.47,-43.371 -85.16,-56.34 -194.97,-91.332 -300.947,-91.332 m -225.34,65.543 c -14.305,9.59 -27.832,20.078 -40.578,31.348 16.082,-6.5 28.445,-18.469 40.578,-31.348 m 583.897,43.328 20.25,27.352 c 3.49,0.23 6.93,0.48 10.31,0.769 14.75,1.239 28.88,3.11 42.48,5.969 -24.3,-13.187 -48.96,-24.949 -73.04,-34.09"
         style="fill:#331112;fill-opacity:1;fill-rule:nonzero;stroke:none"
         id="path130" /><path
         d="m 1446.23,464.23 c 27.52,30.379 55.09,64.61 81.98,103.11 -5.61,-16.442 -12.77,-32.391 -22.39,-47.52 -17.25,-27.082 -37.51,-44.129 -59.59,-55.59"
         style="fill:#331112;fill-opacity:1;fill-rule:nonzero;stroke:none"
         id="path132" /><path
         d="m 440.148,472.809 c 0,0 -0.171,0.171 -0.503,0.511 -17.766,27.961 -25.715,59.961 -46.02,91.442 -28.234,43.777 -56.391,86.476 -80.5,132.699 v 0 c -26.465,50.738 -28.098,99.988 -24.844,149.469 0.188,-1.321 0.285,-2.641 0.469,-3.961 8.152,-56.27 16.699,-95.379 61.934,-131.821 4.824,-3.886 9.589,-7.699 14.273,-11.527 13.578,-67.941 37.172,-143.781 75.191,-226.812"
         style="fill:#331112;fill-opacity:1;fill-rule:nonzero;stroke:none"
         id="path134" /><path
         d="m 1471.43,566.031 c 5.83,12.707 8.92,26.84 11.12,41.141 4.83,31.258 7.64,53.207 29.42,76.156 10.72,11.274 20.78,25.5 22.81,41.434 5.32,42.258 -7,82.457 43.32,103.34 11.98,4.968 26.76,11.367 34.87,22.257 26.1,35.071 23.26,77.672 30.63,118.68 11.12,-57.609 3.53,-113.07 -39.99,-169.391 0,0 -0.01,-0.019 -0.02,-0.019 -0.07,-0.098 -0.14,-0.188 -0.22,-0.289 -0.01,-0.02 -0.03,-0.039 -0.05,-0.059 -0.07,-0.101 -0.15,-0.203 -0.22,-0.293 -0.01,-0.008 -0.02,-0.027 -0.03,-0.039 -0.08,-0.097 -0.16,-0.199 -0.24,-0.301 -0.03,-0.039 -0.05,-0.07 -0.08,-0.109 -0.05,-0.07 -0.11,-0.141 -0.16,-0.199 -0.03,-0.051 -0.06,-0.09 -0.1,-0.129 -0.05,-0.063 -0.09,-0.109 -0.14,-0.172 -0.04,-0.051 -0.07,-0.098 -0.11,-0.148 -0.05,-0.063 -0.09,-0.11 -0.13,-0.172 -0.08,-0.098 -0.16,-0.199 -0.24,-0.297 -0.03,-0.031 -0.05,-0.07 -0.08,-0.102 -0.05,-0.058 -0.1,-0.129 -0.15,-0.191 -0.03,-0.039 -0.06,-0.078 -0.09,-0.117 -0.05,-0.063 -0.11,-0.133 -0.16,-0.192 -0.02,-0.031 -0.04,-0.05 -0.06,-0.082 -0.18,-0.226 -0.36,-0.449 -0.54,-0.679 -0.03,-0.028 -0.05,-0.059 -0.08,-0.098 -0.05,-0.063 -0.1,-0.121 -0.15,-0.191 -0.03,-0.04 -0.06,-0.071 -0.09,-0.11 -0.05,-0.058 -0.1,-0.121 -0.15,-0.191 -0.03,-0.028 -0.06,-0.071 -0.08,-0.098 -0.1,-0.121 -0.2,-0.242 -0.29,-0.359 -0.03,-0.032 -0.06,-0.071 -0.09,-0.114 -0.04,-0.046 -0.09,-0.109 -0.13,-0.16 -0.04,-0.047 -0.08,-0.09 -0.12,-0.136 -0.04,-0.051 -0.08,-0.114 -0.12,-0.161 -0.05,-0.062 -0.1,-0.113 -0.15,-0.179 -0.03,-0.032 -0.07,-0.082 -0.1,-0.121 -0.08,-0.102 -0.16,-0.2 -0.25,-0.301 v 0 c -40.49,-49.629 -45.04,-113.36 -57.47,-175.192 -18.65,-14.828 -42.74,-33.296 -70.09,-52.617"
         style="fill:#331112;fill-opacity:1;fill-rule:nonzero;stroke:none"
         id="path136" /><path
         d="m 1180.62,914.988 c -29.04,85.542 38.77,171.302 -55.48,230.562 -4.1,2.6 -66.82,51.4 -61.48,57.28 -36.82,-40.56 -59.46,-71.81 -71.656,-125.13 -1.543,-6.74 -7.852,-14.87 -15.082,-20.07 -6.219,12.4 -12.02,25.06 -16.695,38.29 -19.395,54.75 24.082,86.19 52.503,125.38 42.21,38.31 84.59,76.21 127.9,112.41 41.36,34.54 84.58,66.79 127.97,98.71 3.81,2.8 14.6,10.28 27.49,18.47 3.36,-3.58 6.8,-7.08 10.35,-10.52 6.79,-6.59 14.18,-12.07 21.97,-16.8 -35.92,-46.87 -81.02,-98.2 -92.9,-150.98 -1.45,-6.4 2.95,-9.02 7.85,-9.02 2.85,0 5.86,0.88 8,2.42 36.19,25.99 70.81,53.58 103.98,83.29 3.26,6.68 4.98,10.03 5.17,10.03 0.34,0 -4.37,-11.02 -14.11,-33.05 -13.28,-31.62 -25.93,-63.53 -39.2,-95.16 -36.57,-87.23 -103.58,-174.39 -126.55,-266.971 -1.62,-6.457 1.99,-11.391 7.05,-11.391 2.05,0 4.35,0.813 6.64,2.672 51.89,42.57 87.17,104.91 134.58,153.09 9.07,9.23 17.69,19.17 26.03,29.45 4.82,-13.8 9.71,-26.34 13.7,-36.25 0.85,-2.77 1.85,-5.49 2.66,-8.29 7.33,-25.1 14.3,-51.61 -19.58,-66.48 -16.36,-7.19 -34.87,-10.54 -52.12,-14.91 -26.91,-6.79 -49.94,-15.168 -71.29,-33.051 -20.12,-16.891 -33.51,-40.91 -47.7,-63.981 M 699.941,1199.31 c -1.296,9.97 -2.789,19.9 -4.707,29.75 44.649,64.06 92.586,122.95 152.36,177.56 1.91,-8.28 3.777,-16.6 5.414,-24.32 -6.176,-6.97 -12.195,-14.1 -17.93,-21.53 -19.551,-25.32 -40.004,-46.23 -57.558,-69.7 -0.957,-0.73 -1.911,-1.47 -2.864,-2.21 -32.285,-25.04 -56.804,-55.18 -74.715,-89.55 m -277.168,43.62 c 2.219,34.88 7.969,67.15 20.989,99.33 6.933,36.1 20.683,72.14 49.531,90.73 26.879,17.31 66.07,58.75 104.594,85.29 -65.008,-60.39 -118.449,-134.34 -159.774,-223.73 -3.883,-8.42 1.481,-12.61 7.871,-12.61 2.243,0 4.61,0.52 6.75,1.54 -9.613,-11.86 -20.421,-25.85 -29.961,-40.55 m 67.375,80.33 c 26.415,27.98 54.215,54.57 83.551,79.4 -11.504,-20.98 -21.726,-42.55 -28.152,-65.49 -4.156,0.47 -8.086,0.7 -11.84,0.7 -17.398,0 -30.82,-4.97 -43.559,-14.61 m 121.915,2.12 c -8.809,2.06 -18.083,3.7 -27.719,5.32 13.816,10.37 27.226,21.96 40.363,34.19 -5.578,-12.73 -9.672,-25.97 -12.644,-39.51"
         style="fill:#d79975;fill-opacity:1;fill-rule:nonzero;stroke:none"
         id="path138" /><path
         d="m 636.613,681.719 c 10.516,34.32 21.532,68.101 7.969,103.781 -12.797,33.59 -35.168,63.77 -56.945,93.09 39.062,44.449 51.054,118.039 93.508,157.17 6.371,5.88 16.164,8.3 27.777,8.3 7.383,0 15.504,-0.98 23.945,-2.67 -9.137,-18.02 -16.09,-36.24 -18.594,-53.859 -37.378,-11.082 -51.992,-87.261 -57.738,-114.562 -5.648,-26.899 -10.148,-55.641 -1.898,-82.289 10.402,-33.602 37.015,-62.36 60.793,-90.09 -23.778,-10.84 -51.867,-8.789 -77.11,-18.41 l -1.707,-0.461 m 352.575,6.14 c -37.442,22.672 -65.75,57.063 -101.833,82.352 -19.132,13.379 3.934,61.828 6.59,78.469 2.91,18.34 5.5,38.3 -1.504,56.031 -7.187,18.25 -45.019,27.32 -61.386,36.758 -28.774,16.582 -58.328,33.851 -90.164,43.883 16.019,12.269 31.859,24.838 47.554,37.638 7.594,-3.38 14.649,-6.87 20.793,-10.23 7.117,14.4 17.895,32.06 30.071,32.06 1.507,0 3.035,-0.27 4.578,-0.85 66.718,-25.07 140.664,-53.63 198.023,-97.4 6.45,-4.941 1.29,-14.859 -2.43,-19.449 -20.43,-25.23 -33.58,-56.32 -53.523,-81.851 -26.359,-33.801 19.213,-38.282 23.293,-61.668 4.65,-26.614 -6.86,-64.872 -20.062,-95.743"
         style="fill:#d79975;fill-opacity:1;fill-rule:nonzero;stroke:none"
         id="path140" /><path
         d="M 991.164,170.73 C 662.668,170.73 381.168,322.672 227.82,685.129 72.1094,1053.16 246.699,1340.97 246.699,1340.97 89.8047,842.59 424.848,488.641 439.645,473.32 c 8.199,-12.902 18.488,-24.929 33.05,-35.66 22.067,-16.238 52.938,-20.16 81.754,-20.16 11.508,0 22.684,0.621 32.844,1.34 1.687,0.121 3.332,0.172 4.934,0.172 47.976,0 57.953,-51.762 96.738,-66.832 37.187,-14.418 75.344,-24.239 115.078,-27.469 2.074,-0.172 4.184,-0.25 6.312,-0.25 20.848,0 44.168,7.559 63.504,12.141 6.696,1.578 12.633,2.257 18.012,2.257 30.172,0 42.899,-21.379 75.246,-25.019 8.61,-0.969 17.426,-1.43 26.383,-1.442 84.16,0 181.47,40.883 247.54,86.922 64.48,44.95 142.21,32.219 205.19,64.91 -166.62,-183.968 -331.38,-227.339 -331.38,-227.339 141.57,4.718 377.47,136.828 377.47,136.828 C 1308.31,170.84 1006.34,170.84 1006.34,170.84 c -5.07,-0.07 -10.129,-0.11 -15.176,-0.11 m 537.046,396.61 c 5.71,16.719 9.82,33.941 13.31,51.308 25.18,20.032 40.45,33.454 40.45,33.454 -17.45,-30.34 -35.44,-58.532 -53.76,-84.762"
         style="fill:#f2ce41;fill-opacity:1;fill-rule:nonzero;stroke:none"
         id="path142" /><path
         d="m 349.34,850.93 c -0.047,34.879 2.519,66.3 6.551,94.082 8.617,23.226 15.515,45.957 13.949,67.368 14.93,54.46 32.555,83.24 32.555,83.24 C 384.805,1023.07 382.074,954.871 388.227,892.941 374.559,876.012 361.406,860.41 349.34,850.93"
         style="fill:#c89058;fill-opacity:1;fill-rule:nonzero;stroke:none"
         id="path144" /><path
         d="m 820.91,364.922 c -20.734,0 -40.883,2.09 -59.515,9.539 -23.786,9.488 -39.618,28.34 -55.852,45.57 37.18,-24.91 79.691,-43.769 127.992,-54.883 -4.226,-0.136 -8.437,-0.226 -12.625,-0.226 m -155.945,86.457 c -7.914,3.199 -16.723,5.07 -26.852,5.07 -3.258,0 -6.648,-0.199 -10.191,-0.597 -7.434,-0.852 -19.008,-2.024 -31.457,-2.024 -25.848,0 -55.485,5.031 -59.817,28.344 -2.585,13.75 0.122,26.816 0.04,40.68 -0.067,12.718 -6.243,16.476 -14.844,16.476 -0.336,0 -0.676,-0.008 -1.02,-0.019 -1.152,0.691 -2.527,0.992 -3.98,0.992 -2.856,0 -6,-1.172 -8.328,-2.922 -9.082,-2.149 -18.731,-5.379 -26.231,-5.859 -2.344,-0.149 -4.59,-0.219 -6.738,-0.219 -36.055,0 -45.281,20.777 -50.324,57 -3.075,21.687 -2.547,52.129 -17.481,70.328 -12.906,15.742 -27.418,28.43 -42.785,40.992 -11.172,55.91 -15.559,106.457 -15.617,151.309 12.066,9.48 25.219,25.082 38.887,42.011 3.468,-34.941 9.769,-67.89 17.824,-98.492 -10.071,-10.16 -16.035,-27.918 -16.559,-39.097 -0.996,-22.383 5.832,-44.622 16.778,-64.192 3.21,-8.461 7.863,-15.91 14.628,-20.531 4.618,-4.359 10.411,-6.488 16.309,-6.488 5.324,0 10.731,1.738 15.43,5.16 h 0.004 C 488.41,595.789 525.066,553.02 525.066,553.02 472.91,671.871 473.359,776.859 490.012,857.09 c 5.449,-67.352 18.781,-135.262 41.336,-198.442 l -0.664,-1.429 c -2.172,-4.68 0.246,-6.61 3.605,-6.629 28.691,-77.129 71.406,-146.781 130.676,-199.211"
         style="fill:#933a24;fill-opacity:1;fill-rule:nonzero;stroke:none"
         id="path146" /><path
         d="m 437.207,664.141 c -5.898,0 -11.691,2.129 -16.309,6.488 -6.765,4.621 -11.418,12.07 -14.628,20.531 -10.946,19.57 -17.774,41.809 -16.778,64.192 0.524,11.179 6.488,28.937 16.559,39.097 12.601,-47.879 29.488,-90.008 46.59,-125.148 h -0.004 c -4.699,-3.422 -10.106,-5.16 -15.43,-5.16"
         style="fill:#6b281a;fill-opacity:1;fill-rule:nonzero;stroke:none"
         id="path148" /><path
         d="m 534.289,650.59 c -3.359,0.019 -5.777,1.949 -3.605,6.629 l 0.664,1.429 c 0.965,-2.699 1.941,-5.378 2.941,-8.058"
         style="fill:#6b281a;fill-opacity:1;fill-rule:nonzero;stroke:none"
         id="path150" /><path
         d="m 508.516,537.379 c 2.328,1.75 5.472,2.922 8.328,2.922 1.453,0 2.828,-0.301 3.98,-0.992 -3.777,-0.118 -7.98,-0.899 -12.308,-1.93"
         style="fill:#6b281a;fill-opacity:1;fill-rule:nonzero;stroke:none"
         id="path152" /><path
         d="m 1287.3,489.191 c 28.25,25.649 53.69,54.379 77.48,84.618 12.47,10.472 19.02,16.953 19.02,16.953 l -74.11,-100.051 c -7.32,-0.5 -14.84,-0.941 -22.39,-1.52 m 75.18,8.258 c 38.5,20.891 76.08,45.36 108.95,68.582 -4.86,-10.613 -11.64,-20.23 -21.42,-28.133 -27.1,-21.839 -55.88,-33.808 -87.53,-40.449 M 355.891,945.012 c 3.711,25.59 8.66,48.078 13.949,67.368 1.566,-21.411 -5.332,-44.142 -13.949,-67.368"
         style="fill:#933a24;fill-opacity:1;fill-rule:nonzero;stroke:none"
         id="path154" /><path
         d="m 993.5,312.398 c -8.957,0.012 -17.773,0.473 -26.383,1.442 -32.347,3.64 -45.074,25.019 -75.246,25.019 -5.379,0 -11.316,-0.679 -18.012,-2.257 -19.336,-4.582 -42.656,-12.141 -63.504,-12.141 -2.128,0 -4.238,0.078 -6.312,0.25 -39.734,3.23 -77.891,13.051 -115.078,27.469 -38.785,15.07 -48.762,66.832 -96.738,66.832 -1.602,0 -3.247,-0.051 -4.934,-0.172 -10.16,-0.719 -21.336,-1.34 -32.844,-1.34 -28.816,0 -59.687,3.922 -81.754,20.16 -14.562,10.731 -24.851,22.758 -33.05,35.66 0.332,-0.34 0.503,-0.511 0.503,-0.511 -38.019,83.031 -61.613,158.871 -75.191,226.812 15.367,-12.562 29.879,-25.25 42.785,-40.992 14.934,-18.199 14.406,-48.641 17.481,-70.328 5.043,-36.223 14.269,-57 50.324,-57 2.148,0 4.394,0.07 6.738,0.219 7.5,0.48 17.149,3.71 26.231,5.859 -0.731,-0.551 -1.379,-1.149 -1.914,-1.801 -7.852,-9.527 -9.036,-31.648 1.738,-40.16 1.777,-1.418 3.898,-2.027 6.07,-2.027 4.176,0 8.551,2.269 11.07,5.5 6.708,8.55 12.79,25.871 2.614,34.39 -1.434,1.199 -2.906,1.77 -4.41,2.059 -0.512,1.898 -1.539,3.191 -2.86,3.969 0.344,0.011 0.684,0.019 1.02,0.019 8.601,0 14.777,-3.758 14.844,-16.476 0.082,-13.864 -2.625,-26.93 -0.04,-40.68 4.332,-23.313 33.969,-28.344 59.817,-28.344 12.449,0 24.023,1.172 31.457,2.024 3.543,0.398 6.933,0.597 10.191,0.597 10.129,0 18.938,-1.871 26.852,-5.07 12.746,-11.27 26.273,-21.758 40.578,-31.348 16.234,-17.23 32.066,-36.082 55.852,-45.57 18.632,-7.449 38.781,-9.539 59.515,-9.539 4.188,0 8.399,0.09 12.625,0.226 0.289,-0.058 0.586,-0.128 0.879,-0.199 31.231,-7.109 63.66,-10.461 96.469,-10.461 105.977,0 215.787,34.992 300.947,91.332 19.73,13.051 38.13,27.629 55.47,43.371 7.55,0.579 15.07,1.02 22.39,1.52 l -20.25,-27.352 c 24.08,9.141 48.74,20.903 73.04,34.09 31.65,6.641 60.43,18.61 87.53,40.449 9.78,7.903 16.56,17.52 21.42,28.133 27.35,19.321 51.44,37.789 70.09,52.617 -3.49,-17.367 -7.6,-34.589 -13.31,-51.308 -26.89,-38.5 -54.46,-72.731 -81.98,-103.11 -62.98,-32.691 -140.71,-19.96 -205.19,-64.91 -66.07,-46.039 -163.38,-86.922 -247.54,-86.922"
         style="fill:#551615;fill-opacity:1;fill-rule:nonzero;stroke:none"
         id="path156" /><path
         d="m 514.41,493.391 c -2.172,0 -4.293,0.609 -6.07,2.027 -10.774,8.512 -9.59,30.633 -1.738,40.16 0.535,0.652 1.183,1.25 1.914,1.801 4.328,1.031 8.531,1.812 12.308,1.93 1.321,-0.778 2.348,-2.071 2.86,-3.969 1.504,-0.289 2.976,-0.86 4.41,-2.059 10.176,-8.519 4.094,-25.84 -2.614,-34.39 -2.519,-3.231 -6.894,-5.5 -11.07,-5.5"
         style="fill:#3e1112;fill-opacity:1;fill-rule:nonzero;stroke:none"
         id="path158" /><path
         d="m 1595.24,1118.64 c -1.62,11.54 -2.18,23.07 -2.18,34.54 0,26.08 2.92,51.86 2.92,76.77 0.01,43.86 -9,85.05 -58.79,120.53 -0.7,0.5 -1.39,1 -2.08,1.52 -11.22,8.44 -19.88,18.68 -27.53,29.58 l 0.09,-0.47 c -20.14,28.53 -32.13,62.12 -58.54,82.61 -51.61,40 -123.75,39.41 -169.87,84.52 -32.5,31.84 -65.53,43.34 -109.58,48.48 -4.82,0.56 -9.59,0.78 -14.34,0.78 -8.55,0 -17.02,-0.71 -25.49,-1.43 -8.47,-0.71 -16.95,-1.43 -25.5,-1.43 -8.47,0 -17.02,0.7 -25.73,2.8 -19.17,4.6 -38.48,12.77 -58.12,16.9 108.63,67.54 219.4,140.84 345.87,167.81 1.08,0.23 2.05,0.34 2.93,0.34 9.61,0 7.31,-12.99 2.86,-18.85 -13.04,-17.03 -14.83,-22.93 -10.47,-22.93 7.22,0 31.27,16.17 49.05,24.85 56.23,27.44 110.55,57.41 164.31,89.41 79.9,47.53 162.96,90.81 240.04,142.76 1.49,1 3.06,1.45 4.51,1.45 4.52,0 7.88,-4.32 4.11,-9.43 -38.27,-52.01 -86.88,-94.57 -125.73,-146.93 -0.51,-0.69 -0.25,-1 0.65,-1 7.85,0 64.23,23.79 75.95,28.79 0.95,0.41 1.83,0.6 2.64,0.6 4.01,0 5.99,-4.56 3.32,-8.57 -58.45,-88.57 -138.15,-159.58 -186.58,-256.43 -8.6,-17.13 -18.63,-44.53 -33.45,-58.21 20.94,19.3 37.12,43.24 57.88,62.43 31.19,28.83 68.41,51.33 98.34,81.25 3.19,3.17 6.51,4.5 9.39,4.5 7.26,0 11.7,-8.46 4.14,-17.04 -64.59,-73.58 -105.68,-170.04 -149.07,-256.72 -12.78,-25.51 -17.05,-35.1 -16.04,-35.1 2.58,0.01 39.83,63.03 57.44,82.39 20.83,22.92 38.23,41.85 63.84,58.77 2.43,1.61 4.88,2.36 7.05,2.36 5.12,0 8.69,-4.17 6.86,-11.22 -23.92,-91.42 -49,-180.71 -68.39,-273.9 -7.09,-33.94 -29.55,-84.48 -36.71,-127.08 M 663.352,1571.8 c 68.488,49.21 147.214,86.8 235.718,114.34 0.934,0.29 1.785,0.43 2.559,0.43 6.359,0 7.32,-9.08 4.309,-13.87 -5.247,-8.28 -22.34,-30.89 -42.872,-59.08 -0.175,0 -0.355,0 -0.535,0 -48.519,0 -96.515,-29.78 -144.679,-31.35 -18.114,-0.6 -36.375,-4.37 -54.5,-10.47 m 248.793,35.5 c -7.543,0 -14.832,0.74 -21.735,2.65 -3.797,1.05 -7.594,1.86 -11.383,2.44 2.832,1.38 5.657,2.77 8.473,4.16 52.371,25.71 98.711,58.96 149.39,86.14 3.66,1.96 6.74,2.81 9.3,2.81 12.58,0 12.46,-20.58 4.69,-30.76 -14.02,-18.38 -29.97,-37.79 -43.68,-58.32 -0.16,0.02 -0.33,0.03 -0.49,0.05 -3.13,0.29 -6.31,0.42 -9.526,0.42 -13.84,0 -28.336,-2.4 -42.758,-4.8 -14.418,-2.4 -28.762,-4.79 -42.281,-4.79"
         style="fill:#f2ce41;fill-opacity:1;fill-rule:nonzero;stroke:none"
         id="path160" /><path
         d="m 1415.79,891.918 c -5.71,0 -10.22,3.32 -9.28,11.922 6.72,61.148 12.95,122.26 18.75,183.49 1.21,-0.43 2.47,-0.61 3.76,-0.61 5.08,0 10.54,2.87 14.28,5.25 9.11,5.78 14.52,16.13 17.66,26.13 1.39,4.38 2.39,8.96 3.09,13.49 -0.3,-1.92 -0.39,-2.68 -0.34,-2.68 0.14,0 1.61,7.72 1.81,9.96 1.6,18.1 -7.52,38.06 -25.17,38.06 -1.71,0 -3.5,-0.19 -5.37,-0.58 5.06,31.05 11.82,63.87 13.59,94.77 -14.34,-22.56 -27.31,-48.35 -42.39,-67 -17.17,-21.27 -33.61,-44.48 -51.23,-66.17 -3.67,10.53 -7.3,21.79 -10.45,33.18 -2.24,6.65 -4.49,13.29 -6.47,20.03 -10.52,35.79 -25.74,64.6 11,84.28 9.27,4.97 94.84,31.99 98.61,31.99 0.08,0 0.12,-0.01 0.12,-0.04 v 0 0 c -0.52,20.14 -1.55,40.6 -4.24,60.75 -32.79,27.37 -78.37,33.11 -115.11,55.43 8.2,10.69 15.92,21.15 22.65,31.34 11.92,18.01 11.22,24.58 3.87,24.58 -11.2,0 -37.83,-15.25 -58.84,-28.6 -21.54,22.94 -39.3,48.58 -54.17,75.99 -48.11,16.44 -100.99,14.02 -151.06,23.61 -31.33,16.52 -89.8,41.42 -121.739,41.42 -2.668,0 -5.148,-0.17 -7.41,-0.54 -93.973,-15.2 -196.844,-49.41 -293.195,-49.41 -3.629,0 -7.239,0.05 -10.848,0.14 -0.441,0.02 -0.895,0.02 -1.336,0.02 -18.027,0 -38.141,-9.85 -58.445,-23.84 20.66,19.2 42.48,37.01 65.465,53.52 18.125,6.1 36.386,9.87 54.5,10.47 48.164,1.57 96.16,31.35 144.679,31.35 0.18,0 0.36,0 0.535,0 -3.316,-4.56 -6.722,-9.26 -10.183,-14.07 8.707,4.34 17.453,8.59 26.144,12.84 3.789,-0.58 7.586,-1.39 11.383,-2.44 6.903,-1.91 14.192,-2.65 21.735,-2.65 13.519,0 27.863,2.39 42.281,4.79 14.422,2.4 28.918,4.8 42.758,4.8 3.216,0 6.396,-0.13 9.526,-0.42 0.16,-0.02 0.33,-0.03 0.49,-0.05 -3.67,-5.5 -7.18,-11.09 -10.45,-16.75 7.91,4.84 15.82,9.74 23.75,14.67 19.64,-4.13 38.95,-12.3 58.12,-16.9 8.71,-2.1 17.26,-2.8 25.73,-2.8 8.55,0 17.03,0.72 25.5,1.43 8.47,0.72 16.94,1.43 25.49,1.43 4.75,0 9.52,-0.22 14.34,-0.78 44.05,-5.14 77.08,-16.64 109.58,-48.48 46.12,-45.11 118.26,-44.52 169.87,-84.52 26.41,-20.49 38.4,-54.08 58.54,-82.61 l 0.17,-0.81 c 2.51,-24.93 -12.71,-41.91 -30.45,-56.74 25.62,-24.7 66.46,-51.19 65.7,-89.88 -0.81,-40.43 -30.31,-71.23 -47.42,-105.78 0.01,0 0.01,0 0.02,0 0.89,0 46.47,-26.08 52.59,-32.51 6.15,-6.41 3.58,-25.3 2.8,-32.52 -3.77,-36.53 -12.06,-72.339 -20.89,-107.94 -1.09,-4.289 -5.87,-8.219 -10.22,-8.578 -17.46,-1.411 -34.58,-2.571 -51.44,-5.082 7.42,29.71 15.18,59.3 22.25,88.55 -15.42,-28.1 -27.43,-61.992 -39.96,-91.781 -7.63,-1.68 -15.21,-3.758 -22.74,-6.398 1.96,-10.743 3.07,-21.961 2.97,-33.02 -3.95,-3.98 -10.09,-6.703 -15.26,-6.703 m 96.09,349.442 c -3.36,0 -8.02,-2.96 -9.24,-6.15 -0.44,-0.94 -0.84,-1.88 -1.28,-2.84 -1.52,-2.72 -2.58,-7.88 1.43,-9.23 0.86,-0.28 1.67,-0.41 2.44,-0.41 6.1,0 9.52,8.16 10.21,13.42 0.5,3.78 -1.22,5.21 -3.56,5.21 m 84.1,-11.41 c 0.01,43.86 -9,85.05 -58.79,120.53 -0.7,0.5 -1.4,1 -2.08,1.52 0.69,-0.52 1.38,-1.02 2.08,-1.52 49.79,-35.48 58.8,-76.67 58.79,-120.53"
         style="fill:#c89058;fill-opacity:1;fill-rule:nonzero;stroke:none"
         id="path162" /><path
         d="m 1429.02,1086.72 c -1.29,0 -2.55,0.18 -3.76,0.61 1.69,17.72 3.33,35.46 4.95,53.21 1.04,11.5 2.77,23.52 4.77,35.81 1.87,0.39 3.66,0.58 5.37,0.58 17.65,0 26.77,-19.96 25.17,-38.06 -0.2,-2.24 -1.67,-9.96 -1.81,-9.96 -0.05,0 0.04,0.76 0.34,2.68 -0.7,-4.53 -1.7,-9.11 -3.09,-13.49 -3.14,-10 -8.55,-20.35 -17.66,-26.13 -3.74,-2.38 -9.2,-5.25 -14.28,-5.25"
         style="fill:#b16441;fill-opacity:1;fill-rule:nonzero;stroke:none"
         id="path164" /><path
         d="m 1505.23,1222.73 c -0.77,0 -1.58,0.13 -2.44,0.41 -4.01,1.35 -2.95,6.51 -1.43,9.23 0.44,0.96 0.84,1.9 1.28,2.84 1.22,3.19 5.88,6.15 9.24,6.15 2.34,0 4.06,-1.43 3.56,-5.21 -0.69,-5.26 -4.11,-13.42 -10.21,-13.42"
         style="fill:#b16441;fill-opacity:1;fill-rule:nonzero;stroke:none"
         id="path166" /><path
         d="m 1636.65,998.012 c -7.19,24.848 -17.27,50.168 -28.92,76.228 -5.78,12.93 -9.43,25.93 -11.64,38.92 24.79,45.21 40.12,98.15 76.01,137.02 3.71,4.03 8.66,6.04 13.05,6.04 6.96,0 12.51,-5.07 9.43,-15.21 -24.06,-79.43 -34.07,-163.46 -57.93,-242.998"
         style="fill:#f2ce41;fill-opacity:1;fill-rule:nonzero;stroke:none"
         id="path168" /><path
         d="m 1535.11,1352 c -11.1,8.33 -19.85,18.36 -27.44,29.11 l -0.09,0.47 c 7.65,-10.9 16.31,-21.14 27.53,-29.58"
         style="fill:#c85e20;fill-opacity:1;fill-rule:nonzero;stroke:none"
         id="path170" /><path
         d="m 1449.55,735.859 c -8.05,0 -14.97,5.809 -14.43,16.102 3.27,62.359 17.61,126.129 33.41,189.309 16.86,2.511 33.98,3.671 51.44,5.082 4.35,0.359 9.13,4.289 10.22,8.578 8.83,35.601 17.12,71.41 20.89,107.94 0.78,7.22 3.35,26.11 -2.8,32.52 -6.12,6.43 -51.7,32.51 -52.59,32.51 -0.01,0 -0.01,0 -0.02,0 17.11,34.55 46.61,65.35 47.42,105.78 0.76,38.69 -40.08,65.18 -65.7,89.88 17.74,14.83 32.96,31.81 30.45,56.74 l -0.17,0.81 c 7.59,-10.75 16.34,-20.78 27.44,-29.11 0.68,-0.52 1.38,-1.02 2.08,-1.52 49.79,-35.48 58.8,-76.67 58.79,-120.53 0,-24.91 -2.92,-50.69 -2.92,-76.77 0,-11.47 0.56,-23 2.18,-34.54 -0.53,-3.18 -0.98,-6.32 -1.33,-9.4 0.73,1.3 1.46,2.61 2.18,3.92 2.21,-12.99 5.86,-25.99 11.64,-38.92 11.65,-26.06 21.73,-51.38 28.92,-76.228 -7.36,-24.543 -16.04,-48.653 -26.85,-72.063 -32.03,-69.34 -89.95,-136.187 -147.75,-185.238 -3.88,-3.289 -8.34,-4.852 -12.5,-4.852 m 62.95,157.52 c -9.12,0 -19.16,-7.801 -25.26,-15.109 -8.34,-7.821 -16.36,-19.27 -13.79,-31.079 0.66,-2.902 1.4,-5.543 2.47,-8.043 -0.88,-10.867 2.15,-20.75 14,-21.519 0.59,-0.039 1.17,-0.051 1.74,-0.051 16.52,-0.008 26.65,15.781 32.03,31.402 1.22,2.489 2.18,4.961 2.78,7.329 -0.29,-1.321 -0.49,-2.25 -0.48,-2.25 0.01,0 0.2,0.82 0.68,2.921 l -0.2,-0.671 c 0.54,2.839 1.54,7.5 1.72,8.82 0.22,1.371 0.29,3.012 0.19,4.75 0.62,6.711 -0.16,13.601 -5.64,19.172 -3.05,3.07 -6.57,4.328 -10.24,4.328"
         style="fill:#933a24;fill-opacity:1;fill-rule:nonzero;stroke:none"
         id="path172" /><path
         d="m 1525.99,854.059 c -0.01,0 0.19,0.929 0.48,2.25 v 0 0 l 0.2,0.671 c -0.48,-2.101 -0.67,-2.921 -0.68,-2.921"
         style="fill:#6b281a;fill-opacity:1;fill-rule:nonzero;stroke:none"
         id="path174" /><path
         d="m 1491.66,817.578 c -0.57,0 -1.15,0.012 -1.74,0.051 -11.85,0.769 -14.88,10.652 -14,21.519 -1.07,2.5 -1.81,5.141 -2.47,8.043 -2.57,11.809 5.45,23.258 13.79,31.079 6.1,7.308 16.14,15.109 25.26,15.109 3.67,0 7.19,-1.258 10.24,-4.328 5.48,-5.571 6.26,-12.461 5.64,-19.172 0.1,-1.738 0.03,-3.379 -0.19,-4.75 -0.18,-1.32 -1.18,-5.981 -1.72,-8.82 v 0 0 c -0.6,-2.368 -1.56,-4.84 -2.78,-7.329 -5.38,-15.621 -15.51,-31.41 -32.03,-31.402"
         style="fill:#6b281a;fill-opacity:1;fill-rule:nonzero;stroke:none"
         id="path176" /><path
         d="m 1431.05,898.621 c 0.1,11.059 -1.01,22.277 -2.97,33.02 7.53,2.64 15.11,4.718 22.74,6.398 -5.5,-13.07 -11.11,-25.359 -17.15,-36.008 -0.68,-1.211 -1.57,-2.351 -2.62,-3.41"
         style="fill:#933a24;fill-opacity:1;fill-rule:nonzero;stroke:none"
         id="path178" /><path
         d="m 720.457,972.512 c -3.965,0 -7.324,2.59 -6.949,7.898 0.168,2.36 0.426,4.731 0.765,7.121 2.973,0.879 6.094,1.348 9.364,1.348 3.258,0 6.664,-0.457 10.23,-1.449 2.356,-0.66 4.696,-1.352 7.024,-2.078 -4.629,-3.551 -9.27,-7.071 -13.926,-10.563 -2.016,-1.519 -4.352,-2.277 -6.508,-2.277 m 67.988,50.478 c -17.191,7.65 -37.152,14.72 -55.578,18.4 4.098,8.08 8.633,16.12 13.403,24.04 10.054,2.67 20.031,16.02 16.273,25.54 11.32,17.03 22.703,33.08 31.844,47.32 39.004,60.82 80.093,120.37 125.836,176.3 25.468,31.12 55.961,58.84 80.917,89.83 2.58,3.21 2.95,4.49 1.87,4.49 -3.955,0 -27.393,-17.27 -33.115,-20.42 -80.735,-44.35 -137.29,-106.42 -209.868,-159.01 -2,-1.45 -4.269,-2.13 -6.382,-2.13 -5.043,0 -9.184,3.88 -6.582,10.42 8.039,20.38 18.585,37.42 30.457,53.3 25.808,19.76 53.039,37.36 80.273,55.12 1.945,1.27 -0.684,16.77 -4.785,36.11 13.41,15.11 27.574,29.42 41.25,44.19 -0.727,-5.7 0.238,-11.48 6.582,-14.01 1.765,-0.71 3.566,-1.03 5.351,-1.03 9.399,0 18.504,8.89 21.477,17.05 2.957,8.15 0.184,18.39 -9.797,19.04 -0.305,0.02 -0.613,0.03 -0.926,0.03 -1.472,0 -3,-0.22 -4.535,-0.61 0.969,1.15 1.926,2.3 2.883,3.47 7.949,9.68 9.418,13.29 7.172,13.29 -3.317,0 -14.731,-7.89 -25.313,-15.77 -10.586,-7.89 -20.339,-15.78 -20.336,-15.78 v 0 c -10.058,-8.41 -19.789,-16.93 -29.222,-25.55 -5.809,25.22 -11.961,49.97 -12.887,55.62 -0.996,6.14 4.531,11.38 10.281,12.28 59.672,9.31 122.426,33.76 183.972,33.76 6.7,0 13.39,-0.28 20.06,-0.92 11.17,-1.07 20.77,-3.48 29.76,-6.52 l 1.17,0.11 1.5,0.24 2.37,-2.03 c 34.8,-13.6 55.62,-41.39 83.87,-73.48 5.08,-5.77 -4.81,-12.78 -9.48,-13.79 -40.95,-8.81 -88.5,-20.79 -124.29,-43.11 -52.24,-32.56 11.28,-97.33 -15.31,-138.88 -1.86,-2.91 -3.83,-5.78 -5.88,-8.6 -73.964,-67.15 -147.39,-135.57 -224.285,-198.31 m 131.938,200.5 c 1.367,-1.39 3.051,-2.38 5.172,-2.38 0.672,0 1.39,0.1 2.16,0.32 7.14,2.05 11.828,7.51 14.695,13.99 4.028,5.36 6.653,11.81 7.278,18.02 l -0.09,-0.06 0.16,2.19 0.078,2.45 0.035,-0.53 0.102,2.3 c -0.375,7.75 -7.629,13.33 -14.883,13.79 -0.531,0.04 -1.055,0.05 -1.574,0.05 -11.465,0 -20.282,-8.23 -26.7,-16.93 l -0.664,-0.9 c -4.714,-6.38 -6.562,-16.86 -2.988,-24.15 3.191,-6.49 9.07,-8.2 15.399,-8.2 0.601,0 1.21,0.01 1.82,0.04 m 29.488,34 -0.113,-1.92 -0.07,-2.13 0.332,0.35 c -0.079,1.26 -0.118,2.49 -0.149,3.7"
         style="fill:#c89058;fill-opacity:1;fill-rule:nonzero;stroke:none"
         id="path180" /><path
         d="m 925.555,1221.11 c -2.121,0 -3.805,0.99 -5.172,2.38 -0.61,-0.03 -1.219,-0.04 -1.82,-0.04 -6.329,0 -12.208,1.71 -15.399,8.2 -3.574,7.29 -1.726,17.77 2.988,24.15 l 0.664,0.9 c 6.418,8.7 15.235,16.93 26.7,16.93 0.519,0 1.043,-0.01 1.574,-0.05 7.254,-0.46 14.508,-6.04 14.883,-13.79 l -0.102,-2.3 -0.035,0.53 -0.078,-2.45 -0.16,-2.19 0.09,0.06 c -0.625,-6.21 -3.25,-12.66 -7.278,-18.02 -2.867,-6.48 -7.555,-11.94 -14.695,-13.99 -0.77,-0.22 -1.488,-0.32 -2.16,-0.32"
         style="fill:#b16441;fill-opacity:1;fill-rule:nonzero;stroke:none"
         id="path182" /><path
         d="m 949.688,1253.44 0.07,2.13 0.113,1.92 c 0.031,-1.21 0.07,-2.44 0.149,-3.7 l -0.332,-0.35"
         style="fill:#b16441;fill-opacity:1;fill-rule:nonzero;stroke:none"
         id="path184" /><path
         d="m 906.191,1411.45 c -1.785,0 -3.586,0.32 -5.351,1.03 -6.344,2.53 -7.309,8.31 -6.582,14.01 6.187,6.69 12.277,13.47 18.152,20.47 1.535,0.39 3.063,0.61 4.535,0.61 0.313,0 0.621,-0.01 0.926,-0.03 9.981,-0.65 12.754,-10.89 9.797,-19.04 -2.973,-8.16 -12.078,-17.05 -21.477,-17.05"
         style="fill:#b16441;fill-opacity:1;fill-rule:nonzero;stroke:none"
         id="path186" /><path
         d="m 746.27,1065.43 c 5.234,8.68 10.746,17.23 16.273,25.54 3.758,-9.52 -6.219,-22.87 -16.273,-25.54"
         style="fill:#b16441;fill-opacity:1;fill-rule:nonzero;stroke:none"
         id="path188" /><path
         d="m 615.445,1118.18 c -2.226,0 -4.187,1.03 -5.297,3.74 -14.75,36.16 -5.382,84.78 -5.382,122.68 -0.02,26.98 1.515,54.44 7.297,80.78 35.136,-8.22 62.871,-23.08 76.714,-69.71 2.618,-8.78 4.715,-17.66 6.457,-26.61 -23.086,-33.12 -45.293,-67.62 -67.804,-103.64 -1.867,-3.02 -7.473,-7.24 -11.985,-7.24 m -162.711,165.3 c 3.442,4.24 6.727,8.22 9.746,11.85 9.68,11.65 18.497,21 27.668,27.93 -11.253,-11.91 -22.253,-24.08 -33.011,-36.48 -1.223,-1.4 -2.742,-2.5 -4.403,-3.3 m 97.383,26.27 c -5.086,0 -9.726,4.09 -8.64,9.93 1.089,5.92 2.461,11.75 4.07,17.49 3.43,-0.38 7.008,-0.93 10.754,-1.63 9.609,-1.81 18.988,-3.32 28.043,-4.84 -9.594,-7.2 -19.383,-13.81 -29.41,-19.64 -1.539,-0.9 -3.2,-1.31 -4.817,-1.31"
         style="fill:#c89058;fill-opacity:1;fill-rule:nonzero;stroke:none"
         id="path190" /><path
         d="m 1187.7,952.738 c -5.06,0 -8.67,4.934 -7.05,11.391 22.97,92.581 89.98,179.741 126.55,266.971 13.27,31.63 25.92,63.54 39.2,95.16 9.74,22.03 14.45,33.05 14.11,33.05 -0.19,0 -1.91,-3.35 -5.17,-10.03 -33.17,-29.71 -67.79,-57.3 -103.98,-83.29 -2.14,-1.54 -5.15,-2.42 -8,-2.42 -4.9,0 -9.3,2.62 -7.85,9.02 11.88,52.78 56.98,104.11 92.9,150.98 36.74,-22.32 82.32,-28.06 115.11,-55.43 2.69,-20.15 3.72,-40.61 4.24,-60.75 0,0.03 -0.04,0.04 -0.12,0.04 -3.77,0 -89.34,-27.02 -98.61,-31.99 -36.74,-19.68 -21.52,-48.49 -11,-84.28 1.98,-6.74 4.23,-13.38 6.47,-20.03 3.15,-11.39 6.78,-22.65 10.45,-33.18 -8.34,-10.28 -16.96,-20.22 -26.03,-29.45 -47.41,-48.18 -82.69,-110.52 -134.58,-153.09 -2.29,-1.859 -4.59,-2.672 -6.64,-2.672 M 1012.73,1221.3 c 2.05,2.82 4.02,5.69 5.88,8.6 26.59,41.55 -36.93,106.32 15.31,138.88 35.79,22.32 83.34,34.3 124.29,43.11 4.67,1.01 14.56,8.02 9.48,13.79 -28.25,32.09 -49.07,59.88 -83.87,73.48 l -2.37,2.03 -1.5,-0.24 -1.17,-0.11 c -8.99,3.04 -18.59,5.45 -29.76,6.52 -6.67,0.64 -13.36,0.92 -20.06,0.92 -61.546,0 -124.3,-24.45 -183.972,-33.76 -5.75,-0.9 -11.277,-6.14 -10.281,-12.28 0.926,-5.65 7.078,-30.4 12.887,-55.62 -59.774,-54.61 -107.711,-113.5 -152.36,-177.56 -1.742,8.95 -3.839,17.83 -6.457,26.61 -13.843,46.63 -41.578,61.49 -76.714,69.71 2.972,13.54 7.066,26.78 12.644,39.51 -13.137,-12.23 -26.547,-23.82 -40.363,-34.19 -9.055,1.52 -18.434,3.03 -28.043,4.84 -3.746,0.7 -7.324,1.25 -10.754,1.63 6.426,22.94 16.648,44.51 28.152,65.49 -29.336,-24.83 -57.136,-51.42 -83.551,-79.4 -9.171,-6.93 -17.988,-16.28 -27.668,-27.93 -3.019,-3.63 -6.304,-7.61 -9.746,-11.85 -2.14,-1.02 -4.507,-1.54 -6.75,-1.54 -6.39,0 -11.754,4.19 -7.871,12.61 41.325,89.39 94.766,163.34 159.774,223.73 20.304,13.99 40.418,23.84 58.445,23.84 0.441,0 0.895,0 1.336,-0.02 3.609,-0.09 7.219,-0.14 10.848,-0.14 96.351,0 199.222,34.21 293.195,49.41 2.262,0.37 4.742,0.54 7.41,0.54 31.939,0 90.409,-24.9 121.739,-41.42 50.07,-9.59 102.95,-7.17 151.06,-23.61 14.87,-27.41 32.63,-53.05 54.17,-75.99 -12.89,-8.19 -23.68,-15.67 -27.49,-18.47 -43.39,-31.92 -86.61,-64.17 -127.97,-98.71 -43.31,-36.2 -85.69,-74.1 -127.9,-112.41 m -235.21,69.77 c 17.554,23.47 38.007,44.38 57.558,69.7 5.735,7.43 11.754,14.56 17.93,21.53 4.101,-19.34 6.73,-34.84 4.785,-36.11 -27.234,-17.76 -54.465,-35.36 -80.273,-55.12"
         style="fill:#e9c999;fill-opacity:1;fill-rule:nonzero;stroke:none"
         id="path192" /><path
         d="m 740.891,985.352 c -2.328,0.726 -4.668,1.418 -7.024,2.078 -3.566,0.992 -6.972,1.449 -10.23,1.449 -3.27,0 -6.391,-0.469 -9.364,-1.348 2.504,17.619 9.457,35.839 18.594,53.859 18.426,-3.68 38.387,-10.75 55.578,-18.4 -15.695,-12.8 -31.535,-25.369 -47.554,-37.638"
         style="fill:#e9c999;fill-opacity:1;fill-rule:nonzero;stroke:none"
         id="path194" /><path
         d="m 2345.34,1554.05 c 4.57,31.31 9.59,62.54 17.17,93.33 14.49,58.67 45.9,100.07 84.89,144.31 55.27,62.71 73.92,160.57 86.52,240.95 0.54,3.54 -1.46,4.68 -4.05,4.68 -3,0 -6.79,-1.53 -8.34,-2.63 -42.39,-30.78 -85.33,-61.47 -124.81,-95.9 32.89,62.76 80.85,119.95 122.01,175.07 13.31,17.81 26.4,30.21 40.59,47.12 5.87,6.99 7.74,9.93 6.73,9.93 -5.03,0 -81.95,-73.45 -91.25,-81.35 -11.69,-12.37 -23.23,-24.72 -35.44,-36.39 27.62,69.23 55.56,138.3 85.24,206.65 26.16,37.45 53.53,74.07 79.58,111.65 29.16,42.14 64.13,81.45 104.28,113.53 -47.47,-37.94 -112.87,-70.25 -165.1,-103.87 -1.8,-1.16 -4.01,-1.74 -6.11,-1.74 -4.97,0 -9.33,3.23 -6.24,9.61 29.67,61.17 85.67,114.21 130.3,165.25 8.67,9.92 11.64,13.8 10.95,13.8 -2.42,0 -49.73,-47.69 -53.33,-50.22 -24.55,-17.04 -45.53,-37.82 -71.59,-52.35 15,26.64 32.25,52.21 51.27,76.74 74.35,73.66 156.33,139.35 234.54,209.2 19.25,17.18 40.31,37.4 62.56,58.06 43.87,30.49 89.5,58.45 137.01,82.84 15.31,7.86 30.64,15.65 45.75,23.67 -50.53,-81.37 -127.87,-153.21 -187.21,-228.84 -29.08,-37.02 -62.85,-87.77 -89.13,-116.02 35.23,37.88 68.05,77.83 106.56,112.43 78.88,70.89 159.77,138.99 240.75,207.46 25.66,21.72 61.51,61.37 98.08,84.24 -47.06,-57.04 -93.15,-115.28 -136.72,-174.53 -24.03,-32.72 -45.97,-66.82 -68.04,-100.78 -5.46,-5.7 -10.8,-11.5 -16.36,-17.11 -56.3,-56.63 -95.44,-137.87 -137.54,-210.4 42.65,17.3 86.04,29.84 127.44,36.01 -101.16,-110.86 -223.87,-202.59 -293.39,-339.07 -2.5,-4.92 -0.05,-8.75 4.46,-8.75 0.8,0 1.67,0.12 2.58,0.38 33.11,9.27 65.65,20.07 97.93,31.69 -15.62,-23.56 -31.32,-47.05 -47.98,-69.89 -27.68,-38.07 -69.08,-61.53 -96.54,-99.35 -19.02,-26.19 -15.97,-58.05 -11.53,-88.23 10.09,-68.91 -1.85,-112.26 -62.78,-150.01 -58.8,-36.4 -123.85,-50.59 -175.65,-95.5 -1.88,-1.14 -3.95,-2.09 -5.75,-3.37 -0.22,-1.04 -0.81,-2.16 -1.4,-3.3 -3,-2.84 -6.12,-5.33 -9,-8.41 -32,-34.19 -53.56,-76.65 -71.91,-120.59"
         style="fill:#f35e40;fill-opacity:1;fill-rule:nonzero;stroke:none"
         id="path196" /></g></g></svg>
